<?xml version="1.0" encoding="UTF-8" standalone="no"?>
<!-- Created with Inkscape (http://www.inkscape.org/) -->

<svg
   width="10.434525mm"
   height="8.2453785mm"
   viewBox="0 0 10.434525 8.2453785"
   version="1.1"
   id="svg1"
   xml:space="preserve"
   sodipodi:docname="fp.svg"
   inkscape:version="1.3.2 (091e20e, 2023-11-25, custom)"
   xmlns:inkscape="http://www.inkscape.org/namespaces/inkscape"
   xmlns:sodipodi="http://sodipodi.sourceforge.net/DTD/sodipodi-0.dtd"
   xmlns="http://www.w3.org/2000/svg"
   xmlns:svg="http://www.w3.org/2000/svg"><sodipodi:namedview
     id="namedview1"
     pagecolor="#ffffff"
     bordercolor="#000000"
     borderopacity="0.25"
     inkscape:showpageshadow="2"
     inkscape:pageopacity="0.0"
     inkscape:pagecheckerboard="0"
     inkscape:deskcolor="#d1d1d1"
     inkscape:document-units="mm"
     showguides="true"
     inkscape:zoom="23.347475"
     inkscape:cx="31.480921"
     inkscape:cy="-64.610842"
     inkscape:window-width="1260"
     inkscape:window-height="1003"
     inkscape:window-x="647"
     inkscape:window-y="0"
     inkscape:window-maximized="0"
     inkscape:current-layer="layer1" /><defs
     id="defs1" /><g
     inkscape:label="Layer 1"
     inkscape:groupmode="layer"
     id="layer1"
     transform="translate(-11.476505,20.590021)"><rect
       style="fill:none;fill-opacity:1;stroke:#ffffff;stroke-width:0.234886;stroke-linecap:square;stroke-dasharray:none;stroke-opacity:1"
       id="rect7"
       width="8.0104933"
       height="10.19964"
       x="-20.472578"
       y="-21.793587"
       transform="rotate(90)"
       inkscape:export-filename="Final-Project\assets\border.png"
       inkscape:export-xdpi="350"
       inkscape:export-ydpi="350" /><path
       id="rect8"
       style="color:#000000;fill:#ffffff;stroke-linecap:square;-inkscape-stroke:none"
       d="m 21.428086,-18.913436 h -0.04909 c -0.251978,-0.0017 -0.379537,-0.07853 -0.451135,-0.177767 -0.06825,-0.09458 -0.08476,-0.21792 -0.0863,-0.332279 0.08128,-0.01292 0.215652,-0.04719 0.304891,-0.136426 0.135263,-0.135262 0.144177,-0.374654 0.144177,-0.374654 0,0 -0.239908,0.0089 -0.375171,0.144177 -0.08716,0.08716 -0.121272,0.217449 -0.134875,0.299207 -0.212066,-0.01385 -0.347389,-0.08393 -0.430465,-0.179834 -0.0849,-0.098 -0.118924,-0.227585 -0.115238,-0.359668 l 0.0021,-0.05064 h -4.815763 -2.270662 l 0.0021,0.05064 c 0.0037,0.132083 -0.03034,0.261666 -0.115239,0.359668 -0.08308,0.0959 -0.218398,0.165984 -0.430464,0.179834 -0.0136,-0.08176 -0.04772,-0.212043 -0.134876,-0.299207 -0.135263,-0.135257 -0.375171,-0.144177 -0.375171,-0.144177 0,0 0.0089,0.239392 0.144178,0.374654 0.08924,0.08924 0.223611,0.123506 0.304891,0.136426 -0.0015,0.114359 -0.01805,0.237697 -0.0863,0.332279 -0.0716,0.09923 -0.199158,0.176027 -0.451136,0.177767 h -0.04909 v 2.422074 0.04806 2.422075 h 0.04909 c 0.251978,0.0017 0.379538,0.07853 0.451136,0.177767 0.06825,0.09458 0.08476,0.217919 0.0863,0.332279 -0.08128,0.01292 -0.215653,0.04719 -0.304891,0.136426 -0.135263,0.135263 -0.144178,0.374654 -0.144178,0.374654 0,0 0.239908,-0.0089 0.375171,-0.144177 0.08716,-0.08716 0.121273,-0.217449 0.134876,-0.299207 0.212066,0.01385 0.347388,0.08394 0.430464,0.179834 0.0849,0.098 0.118925,0.227585 0.115239,0.359668 l -0.0021,0.05064 h 2.270662 2.545064 2.270663 l -0.0021,-0.05064 c -0.0037,-0.132083 0.03034,-0.261668 0.115238,-0.359668 0.08308,-0.09589 0.218399,-0.165984 0.430465,-0.179834 0.0136,0.08176 0.04772,0.212047 0.134875,0.299207 0.135263,0.135277 0.375171,0.144177 0.375171,0.144177 0,0 -0.0089,-0.239391 -0.144177,-0.374654 -0.08924,-0.08924 -0.223611,-0.123506 -0.304891,-0.136426 0.0015,-0.11436 0.01805,-0.237699 0.0863,-0.332279 0.0716,-0.09924 0.199157,-0.176067 0.451135,-0.177767 h 0.04909 v -2.422075 z m -0.07597,2.446362 c -0.0079,0.0025 -0.01586,0.0048 -0.02377,0.0072 v 2.358512 c -0.230408,0.01591 -0.399051,0.0838 -0.482141,0.198955 -0.08354,0.11579 -0.09322,0.252719 -0.09612,0.373103 -0.213236,0.02089 -0.379377,0.08896 -0.476457,0.201022 -0.09222,0.106452 -0.11739,0.241721 -0.12299,0.375171 h -2.246885 -2.420007 -2.246892 c -0.0056,-0.13345 -0.03077,-0.268719 -0.12299,-0.375171 -0.09708,-0.112059 -0.26322,-0.180127 -0.476456,-0.201022 -0.0029,-0.120384 -0.01258,-0.257313 -0.09612,-0.373103 -0.08309,-0.115158 -0.251733,-0.183046 -0.482141,-0.198955 v -2.358512 c -0.0079,-0.0024 -0.01588,-0.0047 -0.02377,-0.0072 0.0079,-0.0025 0.01581,-0.0053 0.02377,-0.0078 v -2.358512 c 0.230408,-0.01591 0.399051,-0.0838 0.482141,-0.198955 0.08354,-0.115791 0.09322,-0.252719 0.09612,-0.373103 0.213236,-0.0209 0.379377,-0.08896 0.476456,-0.201022 0.09222,-0.106452 0.11739,-0.241721 0.12299,-0.375171 h 2.246892 4.666898 c 0.0056,0.13345 0.03077,0.268719 0.12299,0.375171 0.09708,0.112059 0.263221,0.180126 0.476457,0.201022 0.0029,0.120384 0.01258,0.257312 0.09612,0.373103 0.08309,0.115158 0.251733,0.183046 0.482141,0.198955 v 2.358512 c 0.008,0.0025 0.01583,0.0052 0.02377,0.0078 z" /></g></svg>
