<?xml version="1.0" encoding="UTF-8" standalone="no"?><svg xmlns="http://www.w3.org/2000/svg" xmlns:xlink="http://www.w3.org/1999/xlink" fill="#642b62" height="301.9" preserveAspectRatio="xMidYMid meet" version="1" viewBox="-0.3 -0.8 348.0 301.9" width="348" zoomAndPan="magnify"><g id="change1_1"><path d="M343.1914,150.575c-1.1899-34.1645,2.3789-70.3491-6.2868-75.5902c-1.9398-2.2171-27.1885-8.6188-75.0829-19.0417 c0.1716-1.485-0.2528-2.976-1.2687-4.2664c-2.7676-3.5156-9.1797-5.0024-15.9434-3.7012c-1.7849,0.3434-5.1881,1.1318-9.6229,2.2193 c-9.6055-2.024-19.1597-4.0015-28.0231-5.7997c6.583-5.4757,13.3723-10.5328,19.8716-13.7394 c6.6797-3.2954,11.4201,1.7696,16.4756-15.7295c0.4851-2.9107,0.5352-5.5107-0.917-7.9746 c-1.4531-2.4653-3.6729-4.0337-6.5986-4.6611c-6.9951-1.4971-17.9219,2.6821-30.7734,11.7729 c-8.5649,6.0591-15.9457,15.9319-21.7383,25.6467c-10.5264-2.0101-17.8425-3.2678-19.5205-3.2678v0.002 c-0.2948,0.0018-0.77,0.0689-1.4062,0.1941c0-0.0001-0.0001-0.0002-0.0001-0.0002c-1.5477-10.0852-10.8862-23.0214-27.8817-33.925 c-5.5908-2.5391-12.0705-3.4749-15.3859-2.0364c-3.5869,1.5576-6.8477,5.5965-7.4258,9.1898 c-1.0508,6.5386,4.545,13.7551,13.6671,21.8942c3.7687,3.3627,8.3171,7.5497,12.997,11.9163 c-8.282,2.6355-18.543,5.9875-30.7685,10.0516c-3.1934-0.4757-5.9974-0.7452-8.1797-0.7091 c-9.2503,0.158-13.525,4.2761-15.0385,6.225c-2.9769-0.6929-6.2802-1.2943-9.9166-1.7285 c-19.5594-2.3376-61.1931,5.712-69.291,7.9926c-0.0042,0.001-0.0082,0.0023-0.0125,0.0034 c-0.0088,0.0025-0.0209,0.0056-0.0296,0.008c-0.0243,0.0068-0.0457,0.0198-0.0694,0.0278 c-0.0676,0.0229-0.1343,0.0473-0.1979,0.0795c-0.036,0.0182-0.0687,0.0406-0.1031,0.0616 c-0.0518,0.0316-0.1025,0.0637-0.1503,0.1015c-0.0337,0.0267-0.0641,0.0561-0.0953,0.0855 c-0.0428,0.0402-0.0838,0.0815-0.1219,0.1268C4.3253,66.0362,4.3,66.0713,4.2749,66.1073 c-0.0337,0.0482-0.0646,0.0978-0.0929,0.1506c-0.0106,0.0198-0.0254,0.0366-0.0351,0.0569 c-0.0104,0.0217-0.0146,0.0453-0.0239,0.0674c-0.0112,0.0265-0.0269,0.0497-0.0366,0.0771 c-0.0101,0.0283-0.0128,0.0571-0.0211,0.0856c-0.0131,0.0449-0.0247,0.0895-0.0334,0.1353 c-0.0113,0.0583-0.0182,0.116-0.0224,0.1741c-0.0031,0.0422-0.0057,0.0838-0.0052,0.1261c0.0008,0.0624,0.0068,0.1234,0.0153,0.1847 c0.0054,0.0392,0.0098,0.078,0.0182,0.1168c0.014,0.0639,0.0345,0.1254,0.0566,0.1866c0.0095,0.0264,0.0133,0.0541,0.0243,0.0801 c0.0046,0.0107,0.0121,0.0226,0.0168,0.0334c0.0091,0.0201,0.0195,0.0392,0.0295,0.0588 c1.5194,3.2879,11.2743,9.8438,28.6079,12.1304c-6.8727,2.3496-12.5054,4.1879-16.7793,5.582 c-4.7539,1.5508-7.8945,2.5752-9.5996,3.2725c-0.6055,0.248-0.9814,0.8608-0.9268,1.5137s0.6037,1.0027,1.166,1.3379 c-0.7183,4.3948,20.4732,3.3298,65.8366,14.8633c5.5302,1.1931,7.9132,3.8457,11.9527,2.7571 c-4.146,1.0886,0.9504,24.2233-3.6067,69.5939c-0.2347,5.4449-0.4633,10.7531-0.6877,15.7453 c-2.3999,1.3403-4.5366,3.5547-5.7769,6.2023c-0.9585-0.1288-1.6252-0.1971-1.8645-0.1971c-3.7871,0-22.79,16.7764-24.625,19.3525 c-0.2131,0.299-0.509,0.7877-0.8744,1.4363c-1.0202-7.6332-7.4172-23.1527-15.6256-45.912 C19.3015,141.8802,4.2081,99.0926,3.7055,94.222c-0.0751-0.7282-0.9316-1.1211-1.6533-1.0098 c-0.7236,0.1123-1.2607,0.7305-1.2705,1.4629c-0.0039,0.335-0.4414,33.9116-0.6582,67.3428 c-0.3767,58.1427,0.1812,67.4823,0.6994,69.4341c0.0065,0.028,0.015,0.055,0.0231,0.0825c0.0811,0.2731,0.1609,0.3813,0.2355,0.4809 c0.0483,0.0644,0.1056,0.1288,0.1765,0.1949c0.0074,0.0069,0.0153,0.0132,0.0228,0.0199c1.0419,0.9396,5.1205,2.315,30.9697,10.2217 c0.1455,0.0449,0.2939,0.0654,0.4395,0.0654c0.6416,0,2.2264,0.6465,2.4236,0c0.2422-0.792,0.5106-1.8851-1.9861-2.9346 c-11.8083-8.6042-25.5885-5.235-29.1262-8.9187c1.0771-3.5801,3.1448-12.5926,5.4689-23.2585 c1.6114-7.395,2.7593-19.8461,4.3668-27.5393c3.7123-11.6581,8.3237-11.2017,6.7476-25.8506v-0.0001 c8.7507,25.8862,18.3361,53.8956,24.0311,69.4695c0.1363,0.3715,0.405,0.6528,0.7319,0.8181 c-3.0629,5.9374-8.0541,16.3997-12.5307,26.1106c-12.7744,27.7119-12.2998,28.9482-12.0166,29.6865 c0.2861,0.7432,0.7646,1.9873,23.7588,11.6211c2.3037,0.9648,22.5762,9.4287,25.0019,9.4287c1.2627,0,2.834,0,16.5898-31.8662 c1.1849-2.7451,2.5027-5.8391,3.8381-9.0156c15.7558,4.0543,19.3303,12.7347,50.9692,17.5045 c20.1979,5.2849,31.6151,11.5995,38.9564,14.3743c0.0251,0.0095,0.051,0.0156,0.0764,0.0246 c0.0447,0.0185,0.0901,0.03,0.1367,0.0441c0.1392,0.0423,0.2798,0.0749,0.4241,0.0759c0.0018,0,0.0034,0.001,0.0054,0.001 c0.0005,0,0.0009-0.0001,0.0012-0.0001c0.0002,0,0.0005,0.0001,0.0007,0.0001c0.0012,0,0.0024-0.0004,0.0037-0.0004 c0.0647-0.0002,0.131-0.0038,0.1965-0.0133c0.0189-0.0026,0.0359-0.0096,0.0546-0.0129c0.0463-0.008,0.0912-0.0199,0.1368-0.0323 c0.0552-0.015,0.1091-0.0314,0.1614-0.0522c0.0182-0.0072,0.0376-0.0099,0.0554-0.0179l3.6694,0.1289 c3.9048-1.7355,5.9973-4.0669,9.7661-5.7243c20.8557-9.1719,39.6748-17.2029,56.4128-24.1892 c2.0095,1.402,4.7882,2.7407,7.5354,2.7407c1.9092,0,3.7979-0.6465,5.3867-2.3682c1.1597-1.2563,1.9294-3.2877,2.3279-6.6887 c6.6123-2.7167,10.841-1.6295,16.6704-3.9761c28.8625-11.6188,15.071-12.05,58.984-25.9368 c0.5833-0.2311,1.6713-0.3604,2.2996-1.3477C347.7944,219.1855,344.375,183.6609,343.1914,150.575z M17.6088,145.7738 c-0.0466,0.2565-1.6118,8.8629-3.7798,20.5216c-2.0709,11.1364-4.5975,28.3753-6.9708,40.4646 c-1.4433,7.3521-2.8216,13.0181-3.9279,17.0756c-0.4623-5.4467-0.9772-13.626-1.0083-22.3522 c1.3206-26.2128-0.1702-71.4283,1.7473-97.8713c0.827,2.4805,1.8184,5.4518,2.9343,8.7913c-0.0475-0.142-0.0762-0.228-0.0762-0.228 s0.6053,14.7548,0,20.2442c-0.6053,5.4894-0.1469,12.1277,0.1345,14.1702s1.558,1.4042,1.558-2.8085s-0.383-8.4255,0-11.4894 c0.383-3.0638,0.431-13.7662,0.3431-14.0287c-0.0121-0.0362-0.062-0.1853-0.1348-0.403c2.6694,7.9776,5.8587,17.4858,9.2711,27.6086 C17.6596,145.5654,17.6282,145.6668,17.6088,145.7738z M64.2494,286.5565c-0.2734,0.4961-0.7871,0.7764-1.3154,0.7764 c-0.2451,0-0.4932-0.0596-0.7227-0.1855c-10.043-5.5283-27.4668-11.1582-27.6416-11.2148 c-0.7891-0.2529-1.2227-1.0986-0.9688-1.8867c0.2529-0.7871,1.0957-1.2275,1.8867-0.9688 c0.7246,0.2324,13.9236,7.0908,28.1709,11.4414C64.4508,284.7603,64.6489,285.8309,64.2494,286.5565z M68.726,277.3827 c-0.2734,0.4961-0.7871,0.7764-1.3154,0.7764c-0.2451,0-0.5126-0.0292-0.7227-0.1855 c-8.9361-6.6497-27.4668-11.1592-27.6416-11.2158c-0.7891-0.2529-1.2227-1.0986-0.9688-1.8867 c0.2529-0.7871,2.1172-0.157,2.9083,0.1018c0.7246,0.2324,16.8515,4.7029,27.1493,10.3718 C68.8608,275.745,69.1254,276.6571,68.726,277.3827z M78.5444,219.5673c-0.0439,2.1201-0.0781,3.7949-0.2441,5.0508 c-0.025,0.189-0.0057,1.0098,0.0367,1.1846c-1.0181,0.2122-2.6875,0.1799-3.5425,0.0469c-1.0176-0.1592-4.3022-1.6429-4.7872-5.2809 c-0.2553-1.9149,0-4.6595,2.465-6.3294c0.0043-0.0029,0.0084-0.0067,0.012-0.0104c0.8259,2.3981,2.5874,3.8027,5.0407,3.9518 c0.0469,0.0029,0.0947,0.0049,0.1426,0.0049c0.2792,0,0.5848-0.0476,0.9101-0.1349 C78.5649,218.5854,78.5543,219.0911,78.5444,219.5673z M79.0071,212.9728c-0.0463,0.8656,0.0048,1.0851-0.3273,1.8302 c-0.5663,0.5953-1.1459,0.5804-1.3323,0.5953c-0.833-0.0508-1.642-0.5576-2.1557-2.5195c-0.0151-0.0575-0.04-0.1093-0.0612-0.1633 c1.1021-0.3649,2.3723-0.5724,3.7042-0.6181C78.8153,212.1819,79.0477,212.215,79.0071,212.9728z M79.8007,201.5297 c-0.8126-0.1524-1.5916-0.29-2.322-0.4125c0.6646-1.1491,1.5291-2.1345,2.4783-2.9238 C79.9047,199.3254,79.8526,200.4413,79.8007,201.5297z M245.1761,50.9217c6.5449-1.2598,9.1899-0.0457,10.8735,2.0944 c0.4548,0.5773,1.5054,1.3736,2.1287,2.1362c-2.1479-0.4655-4.323-0.9358-6.5579-1.4166c-3.2446-0.6981-6.531-1.4002-9.8291-2.101 C243.2465,51.3155,244.4037,51.0703,245.1761,50.9217z M259.2422,58.3793c0.037,0.0208,0.0704,0.046,0.1097,0.064 c0.2439,0.1112,0.501,0.1448,0.7502,0.123c33.3461,7.2434,64.4501,14.4856,72.7017,17.5706 c-9.1868-1.5273-25.6621,13.6473-60.6453,22.386c-4.7487,1.4161-9.5952,2.8571-14.4778,4.3087 c-2.6594-5.6403-11.4473-6.0399-20.825-9.6304c-5.4014-2.0684-10.4117-4.817-17.4089-7.0737 c-16.2707-5.2476-25.1915-11.5179-32.1394-11.0782c0.2429-0.4024,0.4851-0.8048,0.7183-1.2036 c28.6299-0.8848,84.8484-0.6953,85.3855-0.7026c0.8291-0.0117-2.3503-3.9371-3.1853-3.9366 c-0.1929,0.0027-14.2622,1.6176-24.3892,1.7822c-18.4382,0.2999-40.3472-0.6949-58.7124-0.1162 c-0.0166,0-0.0342,0.0005-0.0508,0.0015c-4.9551,0.1564-8.8768,0.3091-11.7379,0.4565c-0.6588-0.1968-1.307-0.3894-1.9476-0.5787 c2.1907-0.5645,4.7903-2.0822,7.9314-4.4191c6.0469-1.983,13.1244-4.0457,20.6876-5.7001 c10.7229-2.3456,23.7612-5.3711,32.903-7.4518C242.9467,54.8721,251.1546,56.6244,259.2422,58.3793z M167.7271,75.1184 c0.1622-0.0051,0.3199-0.0303,0.4658-0.0844c1.2136-0.2029,2.4867-0.369,3.8329-0.4922c0.7823-0.0715,1.8054-0.1384,3.0321-0.2037 c-3.4603,2.8083-9.252,7.8179-14.4735,13.8131c-6.7593,7.7605-12.4747,16.8843-14.0243,19.425 C146.963,88.5442,151.2865,78.049,167.7271,75.1184z M165.6647,72.0265c0.5399-0.2145,1.1541-0.4563,1.8027-0.7098 c0.5464,0.1733,1.1189,0.3593,1.6788,0.5392c-0.5101,0.0763-1.0221,0.1664-1.5352,0.2659 C167.358,72.1112,166.685,72.0813,165.6647,72.0265z M178.2982,74.8915c2.326-1.7697,6.5033-1.5144,5.0583,1.7607 c-3.7738,8.2447-10.3737,14.1895-10.3737,14.1895c-5.8096,4.723-14.9131,11.5283-21.5123,14.9231 c2.6722-3.8642,6.9645-9.9373,11.3755-15.6428C171.1275,79.41,175.996,76.0001,178.2982,74.8915z M143.5405,109.3216 c0,0.7705,0.584,1.416,1.3506,1.4927c0.1758,0.0176,0.3555,0.0259,0.542,0.0259c0.6638-0.0001,1.4062-0.1272,2.1998-0.3365 c0.0985-0.0132,0.1939-0.034,0.288-0.0664c6.4011-1.8505,16.6153-9.8353,27.4214-18.62l0.7764-0.6309 c0.0898-0.0732,0.1709-0.1563,0.2412-0.248c0.0613-0.0787,5.0466-6.5668,9.4177-13.4267 c8.9235,3.1994,17.7565,4.3275,27.8116,8.6158c6.8154,2.9063,16.7677,7.7973,22.1945,9.8754 c7.9706,3.0518,14.219,5.4534,18.2095,7.9258c-4.2493,1.2632-8.5085,2.5292-12.7494,3.7939 c-23.9164,7.1323-47.1495,14.1686-63.5118,19.7612c-31.1719-5.6968-67.3916-19.9501-83.5983-18.1654 c-1.5366-0.3647-3.0559-0.713-4.5687-1.056c0.0003-0.0009,0.0006-0.0021,0.0009-0.0029 c0.9778-2.7438,16.8055-11.0721,26.2072-15.6696c8.8452-4.3254,19.1845-8.1479,30.1617-12.6577 c4.3578-1.7903,8.7813-3.5655,13.204-5.3226c0.2652,0.0199,0.528,0.0394,0.7838,0.058 C151.0229,79.0639,143.5405,88.844,143.5405,109.3216z M228.4482,51.8259c-10.255,2.5953-23.4949,6.0962-35.4949,9.456 c-2.8057,0.7855-5.5366,1.5621-8.1519,2.3185c3.0269-2.4762,6.479-5.5093,10.4675-9.0498c2.8466-2.5267,5.8044-5.1489,8.8203-7.7276 C211.6732,48.3519,219.9149,50.0442,228.4482,51.8259z M204.1673,17.6559c10.5254-7.4458,22.3809-12.6686,28.5967-12.6686 c0.8604,0,1.6631,0.0781,2.4023,0.2368c2.1006,0.4502,3.6191,1.5137,4.6436,3.251c1.0254,1.7397,1.5684,5.1122,0.9639,7.1361 c-1.6865,5.6533-9.4336,9.4767-15.2666,12.3541c-7.3782,3.6404-15.0115,9.4919-22.303,15.6696 c-4.0789-0.8221-7.9919-1.6024-11.6487-2.3209c-1.8685-0.3671-3.6726-0.7188-5.4037-1.0532 C191.6664,30.8664,196.241,23.2631,204.1673,17.6559z M184.8441,42.5331c4.2429,1.0558,9.0018,2.2394,14.2856,3.2946 c0.406,0.0811,0.8201,0.1642,1.2307,0.2463c-2.4153,2.0927-4.7853,4.194-7.0828,6.2335 c-6.1238,5.436-12.3796,10.9832-16.9448,13.8021c-1.0682,0.3257-2.0906,0.6423-3.0706,0.9503 C175.1035,62.4189,179.134,52.6575,184.8441,42.5331z M163.5971,39.433c0.0557,0.0063,0.1104,0.0093,0.166,0.0093 c1.0591,0,5.1041-0.2946,10.5419,0.6795c2.3059,0.413,4.889,1.018,7.7338,1.7166c-5.2405,9.1183-9.0405,17.831-11.0607,22.8222 c-0.2972-13.1714-4.5526-7.8079-7.7211-25.1929C163.4033,39.4467,163.5238,39.4331,163.5971,39.433z M168.9311,68.4615 c-0.0321,0.0108-0.0623,0.0212-0.0942,0.032c-0.0345-0.0353-0.0747-0.0643-0.1226-0.0835 c-4.9225-1.9695-15.0845-12.696-25.6567-23.5176c7.8982-2.36,13.8226-3.9644,17.2529-4.7933 C164.8085,56.641,168.3829,56.17,168.9311,68.4615z M128.4122,32.17c-8.3438-7.4443-13.7048-17.5212-12.8191-23.0295 c0.416-2.5845,2.0381-4.5596,4.6914-5.7119c0.8057-0.3501,1.7861-0.5225,2.9033-0.5225c2.333,0,5.0194-0.7496,8.2235,0.705 c9.3945,4.2651,22.5154,16.7455,28.0107,33.7197c-3.8206,0.9943-9.9653,2.8288-18.3936,5.49 C138.4003,36.7658,133.8297,38.2977,128.4122,32.17z M140.4633,45.6736c0.0048,3.4326,6.4729,4.3688,23.5342,22.3582 c-1.0301-0.2937-2.0281-0.578-2.9691-0.8463c-1.7686-0.5044-7.5258-3.2896-8.9391-3.5753 c-8.9817-1.8158-26.0488-6.5022-39.2861-8.9886C123.3915,51.001,132.7498,48.0129,140.4633,45.6736z M151.1985,65.4445 c1.428,0.2216,3.0372,1.9045,4.8106,2.4099c2.4006,0.6846,5.0895,1.4826,8.0088,2.3836c-1.1551,0.4521-2.3901,0.9377-3.6901,1.4514 c-5.3524-0.3845-11.8682,1.9346-20.3948-2.1929c-0.0518-0.0103-0.1035-0.0186-0.1563-0.0234 c-0.4949-0.0753-0.9866-0.1576-1.4798-0.2369c-0.0295-0.0059-0.0591-0.0103-0.0894-0.0143 c-3.0729-0.4959-6.1006-1.0655-8.9123-1.7302c-7.8428-1.8544-17.0828-3.2483-25.363-0.5012 c-1.4435-0.9478-5.1453-3.1572-11.1259-5.2811c4.8952-1.7963,9.6198-3.4844,14.1544-5.0684 C120.0053,58.4739,140.781,63.8281,151.1985,65.4445z M137.4503,72.5675c-3.3293,2.6899-11.5722,8.5175-20.4645,11.8521 c-5.2607,1.9727-10.6934,2.7531-15.7706,4.9064c-5.1924,2.2023-10.9315,4.6356-13.7697,5.4811 c-1.6087-3.85,5.3031-8.8138,9.6684-11.9365C116.9787,69.5539,132.0425,74.6096,137.4503,72.5675z M88.1486,87.3544 c1.3538-3.4559,3.6554-7.5646,7.3763-11.5255c5.2617-5.6016,11.5671-8.7691,18.3972-8.7691c4.3237,0,9.1244,2.1093,13.1526,3.0018 C115.257,71.5758,96.9408,75.7668,88.1486,87.3544z M99.4301,56.0194c0.1348-0.0024,0.2715-0.0034,0.4111-0.0034 c0.2559,0,0.5302,0.0081,0.8047,0.0162c-3.9139,1.3076-8.0028,2.6787-12.2745,4.1161c-0.0686,0.0231-0.1307,0.056-0.1935,0.0877 c-0.1877-0.0533-0.3733-0.107-0.5641-0.1597C89.3068,58.4448,92.8473,56.1314,99.4301,56.0194z M73.4468,59.2339 c13.6193,1.6263,23.0865,6.9885,27.0201,9.188c-0.6804,0.3418-1.3506,0.7198-2.0106,1.1321c-0.0132-0.011-0.0233-0.0244-0.037-0.035 c-0.6875-0.5303-7.5313-5.1504-35.9326-4.0547c-3.7734,0.1465-7.4238,0.2954-10.9355,0.439 c-15.9469,0.6519-29.4977,1.2051-37.9741,0.7457c3.7047-0.7598,8.2659-3.2929,14.5576-3.2931 c7.9069-0.0003,15.5901-1.7562,23.9799-2.5195C60.4781,60.0754,67.7087,58.5496,73.4468,59.2339z M10.2261,69.3895 c8.2907,0.8648,22.8224,0.2725,41.4471-0.4888c3.5098-0.1436,7.1741-0.0735,10.9287-0.4385 c30.2044-2.9363,30.7311,1.9241,33.1846,3.023c-0.7131,0.5886-1.4092,1.2284-2.0867,1.9227 c-1.8635,0.323-9.4092,1.5693-20.6125,2.6319c-6.9718,0.6612-15.3601,1.2513-24.6768,1.5034 C28.4934,78.0823,16.1348,74.8915,10.2261,69.3895z M54.0425,99.9573c-17.1092-3.4917-35.7755-7.4981-40.6782-9.6941 c-0.4113-0.1842-0.3961-0.7668,0.0191-0.942c0.8009-0.3378,1.52-0.7525,2.6237-1.4548c5.617-3.5745,15.2665-4.4567,23.8671-7.4366 c0.0045-0.0015,0.0063-0.0028,0.0106-0.0043c1.8137,0.0991,3.6855,0.1575,5.6312,0.1575c0.9746,0,1.9688-0.0132,2.9766-0.0405 c5.1335-0.1389,11.5248-1.9924,16.0251-2.2504c12.1356-0.6957,14.9362,0.8936,26.1521-1.3601 c-6.6594,8.654-7.9842,17.4309-6.7008,20.0633c0.0499,0.1274,0.1193,0.2452,0.2015,0.3545 c0.0079,0.0104,0.0132,0.0274,0.0213,0.0375c0.0074,0.0093,0.0165,0.0156,0.024,0.0247c0.0355,0.0424,0.0754,0.0803,0.1156,0.1187 c0.3577,0.3755,0.8118,0.5925,1.5342,0.5925c2.0752-0.0005,6.3154-1.7065,16.5205-6.0352c5.0498-2.1416,10.7744-4.5693,15.9746-6.52 c12.2305-4.5859,19.7315-11.0859,21.7793-13.0083c4.833,0.7132,9.6711,1.2416,13.9138,1.628 c-23.9688,9.6183-61.4674,25.5362-67.7591,33.346C78.9196,101.9413,67.1721,102.6368,54.0425,99.9573z M81.787,212.5935 c0.0074,0.0041,0.0148,0.0079,0.0223,0.012c-0.0081,0.0068-0.0157,0.0128-0.0238,0.0196 C81.7861,212.6141,81.7864,212.6045,81.787,212.5935z M85.2305,221.6536c-0.3517,0.9477-1.8585,3.7278-3.8618,3.7278 c0.1052-1.2407,0.1389-3.992,0.1746-5.7527c0.019-0.9243,0.0409-1.963,0.0763-3.1121c0.6976-0.4721,1.4085-1.0168,2.1038-1.608 C85.7189,215.9515,86.0391,219.4731,85.2305,221.6536z M88.2928,203.512c-1.7516-0.5178-3.6584-0.9839-5.5284-1.3865 c0.0046-0.0376,0.0145-0.0734,0.0163-0.1119c0.0865-1.8099,0.197-3.6871,0.3129-5.6153c0.8249-0.2756,1.6226-0.3907,2.3257-0.3212 c1.7051,0.1729,2.7637,1.3848,3.1455,3.6016C88.7893,200.9795,88.6493,202.2775,88.2928,203.512z M147.1105,275.9174 c-7.3839-2.6172-16.7469-4.1672-24.6353-6.7744c-7.0441-2.3281-12.5969-5.7219-19.533-7.9295 c-4.0054-1.2748-7.9464-2.5183-11.7891-3.725c4.2704-10.2365,8.3801-20.5346,8.568-22.2259 c0.418-3.7598-3.542-26.1211-4.4102-28.0781c-0.4372-0.9841-2.0307-1.9033-4.1854-2.7277c0.4991-1.663,0.7128-3.4508,0.3963-5.288 c-0.6123-3.5498-2.7266-5.7646-5.7998-6.0762c-0.7969-0.0803-1.6177-0.0231-2.4397,0.1436 c0.2715-4.5994,0.5231-9.4487,0.5305-14.4156c0.0452-30.3385,1.906-61.8846,5.2423-68.6343 c33.8587,7.9902,70.5778,17.3405,87.2765,20.1301c0.005,0.2327,0.0105,0.4931,0.0168,0.7877 c-8.4136,16.1058-18.5062,35.2524-28.0417,53.1094c-8.0643,15.1019-14.4312,28.7125-20.3423,39.3433 c-5.5419,9.9669-10.8403,17.3832-12.1829,18.9537c-1.0039-0.0898-3.9678-0.6299-9.2529-1.5928l-3.3105-0.6025 c-0.8164-0.1494-1.5957,0.3926-1.7441,1.207c-0.1484,0.8154,0.3926,1.5967,1.207,1.7441l3.3096,0.6025 c6.9473,1.2656,9.0928,1.6563,10.0928,1.6563c0.3281,0,0.5332-0.042,0.7441-0.1094c1.04-0.332,2.6113-0.834,32.8027-57.3271 c1.0841-2.0286,2.1804-4.1658,3.277-6.3474l-0.0002,0.0013c0,0,1.015,3.4003,2.2034,6.6343s2.8967,12.9362,3.8698,18.8936 c0.9731,5.9575,2.7716,8.6808,3.6227,7.6381c0.851-1.0428-0.6808-4.2338-1.7939-10.5317 c-1.113-6.2978-5.6983-27.0671-5.6985-27.0681c2.8292-5.7438,5.6075-11.5257,8.1282-16.2936 c5.7006-10.7827,10.447-19.2518,13.2288-24.1324c0.3895,19.3194,1.334,69.9742,1.1892,100.0759 c-0.0566,11.8896,0.0615,21.6357,0.25,29.4121c-4.9092-28.5586-11.1222-69.9865-14.6851-82.356 c-0.9804-3.4039-1.8042-5.33-2.6118-5.1528c-0.8096,0.1763-1.3232,0.9751-1.1475,1.7847c1.374,6.3195,5.2139,20.9385,8.1619,37.5386 c4.8838,27.5016,9.6656,60.4352,11.0549,70.0802C170.311,284.4599,159.2858,280.2329,147.1105,275.9174z M261.1135,260.9728 c-2.0702,2.2424-4.8684,1.3047-6.9033,0.0757c2.7236-1.1331,5.3888-2.2373,7.9976-3.3137 C261.945,259.336,261.587,260.46,261.1135,260.9728z M262.6245,253.6614c-2.2708,0.9249-6.0601,0.1349-8.4143,1.1469 c-14.3052,6.1497-28.7372,14.8455-46.203,22.5687c-8.1725,3.6138-12.6383,7.5319-24.6383,11.5532l-1.532,0.1165 c-0.1538-1.2504-0.3757-3.272-0.6143-6.1506l0.0001,0.0001c0,0,22.5717-9.2844,27.4227-11.9018 c4.8511-2.6174,3.3191-4.9153,0-3.6387c-3.0547,1.1749-20.3145,10.8567-27.6516,12.5555 c-0.5803-8.1616-1.1655-21.3787-1.0718-41.0235c0.1685-35.056-0.5002-99.5899-0.6038-108.7729 c8.9445-3.0452,19.8748-6.5087,31.8416-10.1827c9.5623-2.9357,17.1747-6.0032,27.5281-9.0919 c5.2114-1.5546,12.8075-3.1147,18.2537-4.6661c1.4487,1.4466,2.1401,2.9816,1.9436,4.7359 c-5.7893,11.1323,3.9123,31.2175-0.0068,73.3486c0.4551,6.9668,1.0928,14.625,1.7676,22.7324 C261.9545,222.7176,263.2798,242.873,262.6245,253.6614z M340.2817,223.4364c-7.0223,1.6226-21.2202,8.0439-42.2745,16.6002 c-9.1833,3.7321-19.7323,7.3979-31.465,12.05c0.2776-8.2592-0.729-22.0501-2.907-45.3436 c-0.7561-8.0875-1.7659-18.9857-1.7659-25.9404c0-37.5319-1.0417-60.3008-0.0037-69.5586c0.2584-2.3024-0.3433-4.2519-1.7039-6.0052 c3.8577-1.1038,6.8269-1.8725,10.952-3.274c35.1486-11.9415,63.702-21.4551,63.9784-21.5665 c0.1014-0.041,0.207-0.1008,0.3132-0.1724C340.9023,87.8296,342.4063,205.1035,340.2817,223.4364z M331.4848,132.2001 c-0.0068,0-0.0137,0-0.0215,0c-0.8281,0.0122-1.4902,0.6929-1.4785,1.5215c0.0039,0.2734,0.3994,27.4766,1.1729,39.083 c0.0537,0.793,0.7129,1.4004,1.4951,1.4004c0.0342,0,0.0674-0.001,0.1016-0.0034c0.8271-0.0552,1.4521-0.77,1.3975-1.5962 c-0.7695-11.5288-1.1631-38.6538-1.167-38.9268C332.9731,132.8578,332.3041,132.2001,331.4848,132.2001z M324.9164,156.0052 c0,0,1.1699,24.3398,1.5596,31.8711c0.041,0.8008,0.7041,1.4224,1.4971,1.4224c0.0254,0,0.0518-0.0005,0.0781-0.002 c0.8281-0.043,1.4639-0.748,1.4209-1.5757c-0.3896-7.5283-1.5596-31.8599-1.5596-31.8604L324.9164,156.0052z M214.007,257.7348 c-1.5319-0.5919-1.2965-1.1058-12.1703,3.4081c-10.8737,4.5139-21.7871,11.7029-13.1063,9.8514c0,0,13.5319-5.5164,19.4043-8.6627 C214.007,259.1855,215.539,258.3267,214.007,257.7348z"/></g></svg>