<?xml version="1.0" encoding="UTF-8" standalone="no"?><svg xmlns="http://www.w3.org/2000/svg" xmlns:xlink="http://www.w3.org/1999/xlink" fill="#642b62" height="426" preserveAspectRatio="xMidYMid meet" version="1" viewBox="-0.3 -0.7 325.7 426.0" width="325.7" zoomAndPan="magnify"><g id="change1_1"><path d="M324.3038,234.8746c-2.4434-25.0381-19.6348-49.4902-39.1387-55.666c-6.8711-2.1757-14.0035-1.501-20.9142-0.5915 c-7.4915,0.9861-14.7177,2.4794-20.9362,7.1489c-2.7938,2.098-4.2247,5.0117-6.7267,7.799 c-6.6131,7.3666-10.6884,14.1169-13.0154,18.6952c-0.2076-4.4148,0.6825-6.2611,0.6783-6.3411 c-0.041-0.8262-1.7772-2.2818-2.5984-2.2613c-0.8281,0.042-1.4648,0.7461-1.4229,1.5742 c0.0127,0.2432,1.2383,24.6025,2.0479,48.8867c0.2957,8.8806,1.2733,17.0275,2.7742,31.8436 c-2.4216-1.6763-3.1025,8.4542-36.124,10.7684c-0.2244-11.7551-0.5057-23.8794-0.7244-33.3063l0.4268-7.649 c-0.0087-1.6843,0.302-3.4457-0.6951-3.9656c20.0593-1.7633,30.4802-5.5486,31.0388-5.7565 c0.7754-0.2891,1.1709-1.1523,0.8818-1.9287c-0.2871-0.7744-1.1494-1.1709-1.9277-0.8838 c-0.1326,0.0491-10.4355,3.7779-30.0704,5.547c2.7926-3.3103-1.1823-36.0559-1.4026-41.8364 c2.8525-0.0977,5.494-1.3364,8.0217-1.4626c0.0381,0.0029,0.0765,0.0166,0.1144,0.0166c0.0703,0,2.5275,0.4233,2.5961,0.4136 c18.6208-2.3187,26.0406-3.356,26.0406-9.2017c0-4.175-5.5533-5.6312-13.967-6.4405c2.2708-3.2343-0.6892-7.3193,5.0177-16.5005 c3.0728,1.1984,6.566,1.941,10.5333,2.0142c0.0088,0,0.0186,0,0.0273,0c0.3926,0,0.7695-0.1533,1.0498-0.4287 c1.8665-1.8304,2.5581-11.9796-2.6025-21.1731c0.8004,0.3766,1.6048,0.743,2.4082,1.0833 c5.1553,2.1836,9.9609,2.9014,14.0547,2.9014c7.6035-0.001,12.7441-2.4775,13.0684-2.6377 c0.7256-0.3594,1.0361-1.2305,0.7002-1.9668c-0.1563-0.3418-3.916-8.4385-12.6289-14.5361 c-4.1252-2.8867-8.6969-4.8693-12.4001-6.1643c0.2228-0.036,0.4702-0.2225,0.6687-0.1082 c4.7919,2.7598,16.876-11.5449,17.1865-11.9668c0.25-0.3408,0.3447-0.7715,0.2607-1.1865c-0.083-0.4141-0.3379-0.7744-0.7012-0.9902 c-0.2217-0.1325-4.0093-2.3574-9.7754-4.1566c-0.7764-4.7787,5.0077-7.9518,4.7314-11.4097 c4.447-2.3802,10.548-6.4177,13.6279-11.8781c0.9814-1.7401,1.7507-3.5028,2.3621-5.2186 c1.7399,8.9019,6.8187,20.9539,21.3713,25.5038c0.1455,0.0459,0.2969,0.0684,0.4473,0.0684c0.2441,0,0.4873-0.0596,0.707-0.1768 c2.3053-1.2313,5.8203-10.7769,3.4487-21.0511c0.6622,0.5859,1.3311,1.1633,2.0064,1.7151 c8.5547,6.9932,17.4131,8.126,22.2559,8.126c2.1689,0,3.5332-0.2275,3.7021-0.2568c0.7979-0.1416,1.3398-0.8896,1.2236-1.6914 c-0.0537-0.3721-1.3887-9.1973-8.0391-17.4971c-2.256-2.8156-5.5422-7.5586-7.9113-9.2118 c0.1384,0.0032,0.2768,0.0116,0.4152,0.0116c8.875,0,17.4658-6.4775,17.8525-6.7734c0.3369-0.2568,0.5488-0.6436,0.584-1.0654 c0.0361-0.4209-0.1074-0.8379-0.3955-1.1475c-0.249-0.2686-6.2188-6.6289-15.6094-10.8398 c-0.0371-0.0166-0.0752-0.0313-0.1133-0.0449c-10.7141-3.7875-18.3107-2.0395-22.4424-0.2502 c2.5428-8.1816,1.1663-17.1166-1.0254-21.5789c-0.8779-1.7871-0.0339-3.4476-1.1227-3.6351 c-0.2598-0.0464-2.3304,0.6786-2.5765,0.7719c-9.1577,3.3965-13.7758,9.3813-16.0999,14.3226 c-2.9513-5.0756-10.6183-15.4785-27.7869-25.1136c-0.1563-0.0874-0.3262-0.146-0.502-0.1738 c-0.793-0.1245-1.959,0.1533-3.0635,2.1709c-2.1391,3.9031-3.9215,14.1424,2.1181,23.7883 c-1.1171-1.9582-3.4581-1.6052-6.7916-1.7662c-15.5693-0.7544-29.0258,7.3441-29.4857,7.6713 c-0.6006,0.4258-0.8027,1.2256-0.4775,1.8857c1.2627,2.5615,13.7119,10.1403,24.4234,12.5875 c-0.8292,0.5559-1.6373,1.1532-2.4097,1.8022c-9.2451,7.7676-8.1738,17.9014-8.124,18.3291 c0.0693,0.5859,0.4746,1.0771,1.0371,1.2549c0.3994,0.127,5.7529,1.7803,12.623,1.7793c4.7844,0,10.3022-0.8093,15.3933-3.4862 c-0.0928,0.8423-0.1617,1.7023-0.1755,2.5975c-0.0862,5.5839,0.2109,10.4333,0.5376,13.9363 c-1.2781,7.8977-2.8224,6.6694-5.8619,14.04c-10.5828-0.3979-17.0775,3.0755-20.5369,5.8499 c2.4236-2.5698-4.1052-16.6449-7.3429-20.1827c-1.3447-1.4678-2.5293-2.1133-3.6299-1.9951 c-0.2627,0.0303-0.5127,0.1289-0.7246,0.2871c-7.8346,5.8308-10.5866,12.8713-11.4299,18.2663 c-0.2637-2.8359-14.7514-9.0486-33.7215-16.3005c-0.1666-0.0637-0.3525-0.0498-0.5303-0.0254 c-0.79,0.1025-1.8359,0.6963-2.3311,2.9424c-0.9565,4.3458,4.0648,21.9476,8.7061,22.231 c-2.2012,0.0811-4.4905,0.3528-6.8618,0.8109c-0.6002-2.1801-1.2039-4.2924-1.8066-6.3335c-0.7964-2.6971-2.431-3.8559-3.207-8.7991 c-2.5355-16.1516-5.2766-11.0638-10.1187-27.8855c2.1976-4.4854,5.2643-12.2484,4.3035-19.1449 c-0.2751-1.9753-0.7317-3.8405-1.2854-5.573c5.0414,4.4716,12.6042,9.2039,22.0334,9.2039c3.2607,0,6.7451-0.5664,10.4258-1.9053 c0.3779-0.1367,0.6805-0.4218,0.8516-0.7861c2.2153-4.7176-1.9102-12.098-10.0299-18.8264 c0.8818,0.0641,1.7637,0.1171,2.6354,0.1462c0.4316,0.0146,0.8555,0.0215,1.2773,0.0215 c15.1914-0.0005,23.7637-9.1167,24.1309-9.5151c0.5488-0.5962,0.5254-1.52-0.0527-2.0869 c-0.2686-0.2632-6.6846-6.4692-17.0068-9.0317c-4.8888-1.2129-9.87-1.4206-13.7924-1.2989 c0.1976-0.1151,0.3915-0.2249,0.5912-0.3432c4.2951-2.5431,5.4408-6.6337,7.9092-11.9532c1.6334-3.5201,3.7674-5.1431,3.834-5.3861 c0.1113-0.4077,0.0449-0.8438-0.1816-1.2007c-0.2275-0.3564-0.5947-0.6011-1.0117-0.6729 c-0.3623-0.0615-8.9629-1.4956-18.9844,0.854c-0.04,0.0093-0.0791,0.0205-0.1182,0.0332 c-10.8131,3.4902-15.7916,9.4886-17.9907,13.4174c-2.9426-8.0463-8.6963-10.5342-13.9072-16.5316 c-1.3063-1.5035-3.126-1.0718-4.105-0.5596c-0.2344,0.1226-0.4321,0.3047-0.5737,0.5283 c-5.2184,8.2557-5.2584,15.8151-4.1078,21.153c-3.7047-4.4861-15.4493-2.2734-37.3253-3.1047 c-0.1783-0.0068-0.3477,0.0815-0.5044,0.1665c-0.7007,0.3794-1.4634,1.3091-1.1187,3.5835 c0.6677,4.3995,5.4659,13.6132,16.1149,17.6185c-2.7076,1.1578-5.4395,2.6799-8.1857,4.5734 c-12.8195,8.8392-16.9001,21.5979-17.0676,22.137c-0.2183,0.7031,0.106,1.4609,0.7656,1.7891 c0.5752,0.2852,1.7544,0.4297,3.3506,0.4297c5.5035,0,15.9523-1.72,23.704-5.2524c-0.3235,0.9485-0.6049,1.9174-0.826,2.9057 c-2.6362,11.7832,4.3643,19.1885,4.6636,19.498c0.2876,0.2969,0.6787,0.457,1.0786,0.457c0.1694,0,0.3413-0.0293,0.5068-0.0879 c0.669-0.2407,15.326-5.645,21.2292-18.347c0.436,0.7233,0.9114,1.446,1.4417,2.1635c2.1592,2.9216,4.255,5.4909,6.1157,7.6472 c0.4149,0.8003,3.708,7.3259,7.943,18.7728c1.2499,3.3785-0.2288,3.8829,3.9462,11.4008 c2.8398,5.1136,3.6586,11.8412,5.4577,18.7811c-10.9745,4.5217-16.9976,12.0198-17.2927,12.3932 c-0.457,0.5781-0.4268,1.4014,0.0713,1.9434c1.6323,1.7792,11.9456,4.7545,21.7225,5.2345c0.5739,2.7443,0.6403,3.1149,1.234,6.5315 c-3.4681,8.3623-0.5826,15.3956-0.438,15.7369c0.2305,0.543,0.7578,0.9004,1.3477,0.9141c0.0459,0.001,0.1563,0.0029,0.3242,0.0029 c0.2915,0,0.7653-0.007,1.3749-0.0334c0.86,6.3704,0.8766,12.512,1.4167,18.978l-15.9891,1.8893 c-0.8281,0.0342-4.1678-0.0594-4.1336,0.7677c0.0332,0.8066,0.6982,1.4385,1.498,1.4385c0.0205,0,0.042,0,0.0625-0.001 l19.4721-0.8024c-0.7632,3.3358,0.0709,7.469,0.7106,11.5402c-5.3772,0.0406-10.7195,0.027-15.8663-0.0369 c-0.0427-0.0673-0.0645-0.1431-0.1191-0.2047c-0.1564-0.1754-7.1426-8.0239-16.4631-18.2449 c-2.4904-2.731-2.5576-3.9073-5.2956-6.876c-3.2939-3.5715-9.2947-8.9658-12.6734-12.5588 c-5.772-6.1382-11.45-12.0509-16.2893-16.8604c0.5176,0.0223,1.0602,0.1978,1.5647,0.0422 c5.9581-1.8372,9.1496-0.2628,17.2347-6.0926c1.7714-1.2772,3.7447-1.234,5.3356-3.9016c0.206-0.3453,0.3744-0.6927,0.3818-1.0947 c0.0272-1.4718-1.1874-1.552-2.3132-2.8335c-1.33-1.5139-2.8391-3.5689-5.3881-5.1179c-1.2574-0.7642-2.9725-1.2968-4.5267-1.7757 c-3.0233-0.9316-1.9575-2.8219-5.4718-2.1751c0.8076-0.3576,1.6101-0.7249,2.3923-1.1085 c14.3633-7.0459,17.8237-19.7842,17.9639-20.3232c0.2041-0.7842-0.251-1.5879-1.0278-1.8164 c-0.3604-0.1064-8.9404-2.5674-19.2554,0.0215c-4.8914,1.2285-9.3809,3.3882-12.787,5.341c0.121-0.1956,0.2413-0.3848,0.3627-0.5842 c4.9946-8.2061,2.3301-20.3145,2.2144-20.8252c-0.0933-0.4131-0.3564-0.7666-0.7246-0.9746s-0.8076-0.25-1.2085-0.1191 c-0.3481,0.1152-8.6167,2.8945-16.355,9.6787c-0.0308,0.0273-0.0605,0.0547-0.0889,0.085 c-7.9048,8.1644-9.4788,15.7995-9.5728,20.3004c-6.3867-5.7234-15.1055-8.2039-20.0454-8.0553 c-1.9907,0.0537-3.2622,0.5225-3.8867,1.4346c-0.1494,0.2188-0.2383,0.4727-0.2583,0.7363 c-0.725,9.74,4.0116,17.4902,7.5362,21.6608c-6.6383-2.9788-13.1915,2.4681-35.6226,13.7464 c-0.159,0.08-0.2681,0.2354-0.3667,0.3838c-0.4399,0.6641-0.6763,1.8438,0.6973,3.6885c2.3716,3.1855,9.4453,8.2178,18.96,8.2178 c1.1468,0,2.3345-0.0869,3.5485-0.2454c-1.8469,2.2949-3.5435,4.9234-5.0783,7.8879c-7.1606,13.8281-4.7646,27.0078-4.6592,27.5615 c0.1353,0.709,0.7554,1.2197,1.4731,1.2197c0.0142,0,0.0288,0,0.0435-0.001c1.0334-0.0295,2.9238-1.8416,6.0343-2.9105 c5.8698-2.0169,3.3957-3.2935,9.2875-7.2724c2.5919-1.7504,4.4911-4.4303,6.2927-6.7797c0.1601,0.9856,0.3666,1.9693,0.6351,2.9421 c3.2114,11.6396,12.8716,14.8857,13.2813,15.0176c0.1514,0.0498,0.3071,0.0732,0.4614,0.0732c0.416,0,0.8223-0.1738,1.1113-0.4922 c0.4778-0.5276,10.8787-12.1923,10.1133-26.1834c0.7277,0.4354,1.4813,0.8564,2.29,1.242 c10.1074,4.8203,18.1772,7.0117,18.5156,7.1025c0.1284,0.0352,0.2593,0.0518,0.3892,0.0518c0.3101,0,0.6162-0.0967,0.8735-0.2803 c0.3652-0.2617,0.5938-0.6738,0.623-1.1221c0.0244-0.3702,0.356-5.9131-0.8113-12.0677c1.8593,2.0121,3.5483,4.9124,6.2054,7.7942 c3.3448,3.6276,7.8267,7.4222,11.6483,11.5848c3.3181,3.6141,6.6504,7.2527,9.7098,10.6085 c-11.759,1.2776-21.5194,2.7761-22.4173,7.8439c-0.1011,0.5723,1.0591,3.4096,2.506,4.516c1.7145,1.3112,7.356-0.27,17.7087,0.3282 c9.8397,0.5685,21.8121,0.7709,32.2917,0.8021c-2.1706,2.6143-0.2983,23.5505,2.2921,42.3097 c-16.2711-1.1833-25.827-3.348-28.173-3.9292c1.3699-4.5321-8.0782-10.4668-18.4179-35.1069 c-0.3206-0.7638-1.3062-0.9971-2.0347-0.6006c-0.7275,0.3955-0.9961,1.3066-0.6001,2.0342 c10.6143,19.5,17.355,32.3848,18.54,35.4375c0.3282,2.64-1.7984,28.2739-4.3237,56.7303 c-0.3105,3.4999-1.6451,9.2554-1.9639,12.8032c-0.3271,3.6404,0.3613,5.0732,0.0337,8.6839 c-0.7873,8.6756-1.5641,17.1485-2.2731,24.8564c-0.3216,0.1635-0.5877,0.4382-0.7249,0.8022 c-0.2389,0.6334-0.0165,1.3215,0.4934,1.7134c-0.2648,2.8762-0.5191,5.636-0.759,8.2397 c-1.6968,18.4111-2.9229,31.7139-3.0454,33.9219c-0.0459,0.8271,0.5874,1.5352,1.4146,1.5811 c0.0283,0.001,0.0562,0.002,0.0845,0.002c0.79,0,2.5829-3.2995,2.6273-4.0983c0.1196-2.1533-1.4681-7.2128,2.8711-32.9362 c0.4216-2.4991,0.8997-2.7314,1.1226-5.1555c5.2959,1.7578,17.0139,5.256,33.348,7.3275 c-0.671,13.6838-3.9586,38.6791-2.3389,45.2159c-18.5787-2.752-33.8021-6.6947-34.0348-6.7557 c-0.5049-0.1338-1.0376,0.0068-1.4131,0.3643c-0.3765,0.3574-0.541,0.8838-0.4355,1.3926c0,0,0.3063,8.2918,5.4127,11.994 s8.847,2.015,8.847,2.015s-0.0009-0.0015-0.0089-0.0143c5.2094,2.3226,12.2792,4.187,21.9025,4.812 c12.2598,0.7959,26.2158,1.7021,39.3672,1.7021c10.779-0.0005,21.0237,0.5394,29.339-1.2382 c8.5937-1.8371,14.6553-9.4468,18.0907-11.0225c0.7532-0.3455,0.1943-1.6318-0.5166-2.0576 c-0.71-0.4248-1.5377-0.1304-2.0576,0.5166c-13.7889,17.1592-53.9072,11.0605-84.0283,9.1055 c-12.0871-0.7849-19.8527-3.6093-24.8245-6.6996c-0.5693-1.7426-0.6366-3.6001-0.5955-4.8211 c5.0264,0.3474,13.1031,0.538,25.9739,3.8848c0.1003,0.027,0.2044,0.0452,0.3123,0.0509c0.0199,0.0007,0.0394,0.0011,0.059,0.0014 c9.6256,1.3682,20.0319,2.3873,29.7007,2.3873c5.1331,0,10.7008-0.2744,16.4449-0.7875c0.0082,0.0001,0.0157,0.0024,0.0239,0.0024 c0.0039,0,0.0078,0,0.0117,0c0.1039-0.0009,0.2053-0.0124,0.3031-0.0333c8.6003-0.7816,17.5876-2.1002,26.1256-3.873 c21.6777-4.5,21.6777-7.3438,21.6777-8.2783c0-1.1826-0.1338-5.0303-0.3193-10.3555c-0.2045-5.8533-0.4636-13.2822-0.6833-21.032 c0.4646,0.0752,0.9157,0.1219,1.3444,0.1219c1.1846,0,3.4224,0.5268,4.3188-0.0464c2.2344-1.4287,2.2705-4.1365,2.2979-4.4255 c0.0137-0.1436,0.0039-0.3018-0.0234-0.4424c-0.0088-0.043-1.7976-5.1581,0.3218-19.8376 c1.9183-13.287,15.3174-17.3926,30.1592-25.9951c8.542-4.9502,17.375-10.0693,25.1836-16.0342 c5.2568-4.016,9.7166-8.454,13.3876-13.3361c3.5183-4.6789,6.5577-6.5524,8.6347-12.0662c1.0449-2.7739,1.6628-8.869,2.3457-11.8615 C324.8762,255.0935,325.3382,245.4794,324.3038,234.8746z M91.8765,105.5817c7.1356-1.3985,13.3418-0.9521,16.1411-0.4053 c-1.3281,3.3887-6.3341,12.8416-16.5366,18.1735c-8.9567,4.6808-12.3881,1.9747-16.7789,5.1136 c-0.6737,0.4816-1.2769,1.0342-1.064,1.835c0.1787,0.6709,2.0027-0.302,2.6658-0.302c0.1274,0,0.2573-0.0156,0.3867-0.0508 c0.2668-0.0707,3.2783,0.209,8.3667-1.6404c3.382-0.0319,6.422,0.5736,9.0659,1.5011c2.0617,0.7232,4.1863,0.876,5.7407,1.8414 c2.678,1.6632,3.2953,4.5401,4.7813,5.5871c0.3746,0.2639,0.4416,0.7957,0.1136,1.1156c-0.8074,0.7878-1.6305,1.5021-2.4655,2.1484 c-1.1792,0.9128-2.0647,2.4067-3.2805,3.0638c-1.5782,0.8529-3.4956,0.7867-5.094,1.269c-4.5569,1.375-9.1003,1.3821-13.087,0.8094 c-0.2335-0.1008-0.4807-0.1317-0.7294-0.1083c-6.1293-1.0032-9.5236-1.9671-10.6641-2.5659 c-0.8216-0.4648-0.2979-2.5532-3.3431-2.424c0.1402-0.6577,0.211-1.3179,0.1674-1.9574c1.8937-0.3475,3.4483-1.2022,4.5586-2.4653 l17.7383,2.2162c0.0635,0.0078,0.126,0.0117,0.188,0.0117c0.7882,0,1.4651-0.6199,1.4971-1.4467 c0.0308-0.7958-0.6279-1.456-1.4182-1.5547l-16.4795-2.059c0.5613-2.0421,0.269-4.2735-0.7522-5.8732 c0.149-0.392,0.2365-0.8024,0.2792-1.2216c2.1437-1.442,12.285-8.1732,22.1627-13.2169c0.6654-0.3398,1.0493-1.1063,0.821-1.8177 c-0.2911-0.9069-2.4797,0.2032-3.2915,0.6169c-8.907,4.5402-16.8458,8.9287-20.3278,11.2355 c-0.2126-0.4285-0.4681-0.8524-0.7818-1.2633c-0.356-0.4659-0.7833-0.9142-1.2611-1.3283c0.0112-0.0114,0.0246-0.0192,0.0355-0.0311 c0.1253-0.1349,2.1182-2.3062,4.8115-5.9755C77.2683,115.3499,75.9066,108.7116,91.8765,105.5817z M64.247,96.7967 c5.2803-4.6162,11.3556-6.6857,14.0651-7.8098c-2.7459,2.363,4.2123,6.5332-1.6395,17.2566 c-6.1041,11.1859-9.5983,12.0588-9.6432,12.1077c-0.1463,0.1583-0.2477,0.3402-0.3134,0.5317 c-0.7759-0.322-1.6014-0.5403-2.4571-0.5894c1.2061-3.9189,4.0195-12.2354,7.5664-17.2783 c0.4766-0.6777,0.3135-1.6133-0.3643-2.0898c-0.6772-0.4766-2.8879,2.9099-3.241,3.6585 c-3.973,8.4255-7.8879,12.6809-7.0247,15.4606c-1.5022-0.3861-3.2845-0.3239-5.0602,0.2018 C59.1406,116.2861,50.2051,110.2321,64.247,96.7967z M56.4092,121.3151c1.895-0.708,3.832-0.7031,4.938,0.0107 c0.0283,0.0186,0.0566,0.0361,0.0859,0.0527c0.2803,0.1592,0.5933,0.2168,0.8931,0.1875c0.0859-0.0088,0.1714-0.0254,0.2559-0.0488 c0.0342-0.0098,0.0684-0.0205,0.1016-0.0332c1.9487-0.6807,4.2285,0.5645,5.3887,2.085c0.333,0.4355,1.354,1.9521,0.5166,3.1602 c-0.4136,0.5967-0.3403,1.4043,0.1738,1.917c0.7832,0.7813,1.2061,2.666,0.5229,4.3496c-0.7217,1.7773-2.4307,2.7354-4.9434,2.7676 c-0.5303,0.0068-1.0171,0.293-1.2813,0.7529s-0.2656,1.0244-0.0044,1.4863c0.4565,0.8066,0.1938,2.7852-1.1929,4.8652 c-1.4443,2.166-3.416,3.4463-5.0273,3.2441c-0.459-0.0498-0.9219,0.1055-1.248,0.4355c-0.3262,0.3311-0.0838,0.8956-0.0223,1.3556 c0.1348,0.9994-0.4244,3.419-2.8085,4.8511c-0.0165,0.0095-4.6808,2.6586-7.1434-0.0328c-0.3299-0.3605-0.7432-0.6074-1.2065-0.6074 c-0.2251,0-0.5861,0.6625-0.799,0.7679c-2.4209,1.2041-4.5681,1.3937-5.8298,0.0851c-0.6274-0.6501-0.9513-2.399-0.9645-3.4043 c0.0001-0.0282-0.0004-0.056-0.0019-0.0843c0.0042-1.0195,0.3176-2.1617,0.9453-3.3205c0.2773-0.5117,0.2334-1.1377-0.1123-1.6064 c-0.4872-0.6592-0.4658-1.9398,0.0003-3.3031c0.0033-0.009,0.0062-0.0182,0.0093-0.0273c0.1039-0.3001,0.2217-0.6027,0.3688-0.905 c0.8506-1.7461,2.5171-3.5322,4.3237-3.584c0.4248-0.0117,0.8242-0.2031,1.0996-0.5264s0.4009-0.748,0.3447-1.1689 c-0.2251-1.7051,0.542-3.9414,1.9087-5.5664c0.5304-0.6307,1.2966-1.3354,2.3043-1.8246c0.0179-0.0074,0.0341-0.019,0.0518-0.0271 c0.6686-0.3166,1.4404-0.5389,2.3281-0.575c0.6465-0.0264,1.2036-0.4639,1.3813-1.0859 C52.3497,123.9186,54.0855,122.1832,56.4092,121.3151z M34.0707,123.1735c-0.9673-2.0444-3.0609-4.3616-2.7386-7.1215 c0.3592-3.0764,0.7437-4.1245,0.4096-5.4108c2.6542-2.5679,14.0628,0.9285,21.2003,9.1181 c-1.6754,1.1279-2.9801,2.6466-3.713,4.3887c-0.4893,0.0773-0.9678,0.2016-1.4363,0.3578 c-1.1762-1.1808-4.0645-2.0532-5.6723-4.2411c-0.4907-0.667-0.9851-2.4654-1.6521-1.9761c-0.6675,0.4912-0.811,1.4297-0.3203,2.0977 c1.4817,2.0161,3.5446,4.2219,4.8883,5.5981c-0.5839,0.4492-1.1339,0.9635-1.6315,1.5552c-1.0745,1.2769-1.8571,2.8188-2.2831,4.374 c-0.5981-0.9893-1.9955-1.1605-2.513-1.6276c-0.0942-0.1176-0.2053-0.2192-0.3308-0.3042 C36.5453,128.3574,35.6024,126.4106,34.0707,123.1735z M8.3321,151.8138c-2.7275-1.625-4.6529-4.0173-5.1417-4.8093 c1.5978-1.144,3.1614-2.1938,4.6863-3.1571c2.4651-1.5573,5.2369-3.7849,7.4811-4.923c3.0376-1.5405,5.448-1.8307,8.0002-2.7441 c7.6697-2.7448,12.9388-3.024,14.5485-3.0359c0.5895,0.5201,1.1405,0.9623,1.6266,1.3256c-1.9068,0.9825-3.3632,2.801-4.2065,4.5337 c-0.078,0.1602-0.1406,0.3203-0.2098,0.4805c-2.894,0.7636-13.2858,3.5179-16.6159,4.5908 c-0.7881,0.2539-1.2212,1.0996-0.9673,1.8877c0.2051,0.6357,0.7939,1.04,1.4272,1.04c0.1528,0,0.3076-0.0234,0.4609-0.0723 c2.7712-0.8937,10.8713-3.0633,14.8849-4.1281c-0.0451,0.9835,0.093,1.9009,0.4364,2.6828 c-0.4796,1.0511-0.7535,2.0969-0.8651,3.1089c-2.4238,1.2073-4.6952,2.7939-6.8064,4.7523 C18.1152,155.9523,11.6871,153.813,8.3321,151.8138z M36.5251,172.1241c-1.4019,2.3799-3.3874,4.7763-5.5919,7.0223 c-2.3058,2.3492-3.7015,2.8419-6.7714,6.7567c-2.2801,2.9077-6.0255,3.5807-7.6223,4.3944c-0.153-1.6219-1.415-3.0725-1.1436-6.3518 c0.253-3.0573,1.9865-7.8625,3.2534-11.6531c0.6437-1.9258,1.4584-3.9023,2.4849-5.8847c2.2342-4.3149,4.9982-8.9431,7.8254-11.6567 c0.0658-0.0507,0.1251-0.1071,0.1809-0.1672c1.6576-1.5643,3.1688-1.7225,5.0555-2.7701c0.2988,0.879,0.7581,1.6872,1.4167,2.3694 c0.0276,0.0286,0.0605,0.0493,0.0885,0.0772c-1.9506,3.1431-7.2652,11.9238-8.7384,16.622c-0.248,0.791,0.1919,1.6328,0.9824,1.8809 c0.1494,0.0469,0.3003,0.0684,0.4492,0.0684c0.6382,0,1.1631-2.2211,1.2567-2.886c1.1451-8.1331,6.7484-11.114,8.6216-14.1366 c0.2687,0.0833,0.55,0.1382,0.8328,0.1889C38.326,158.3258,36.3823,164.8934,36.5251,172.1241z M50.8687,191.5836 c-2.2822-1.0352-8.144-4.418-10.3999-12.5938c-2.8633-10.377,1.7065-22.6904,1.7529-22.8135 c0.0322-0.0854,0.053-0.1721,0.069-0.2588c0.5783-0.1192,1.163-0.2742,1.7552-0.5049c0.7032,0.599,2.3712,1.1357,3.3074,1.2989 c0.0678,3.5048-0.4828,12.4148,0.6296,17.3994c0.1558,0.6982,0.7754,1.1729,1.4624,1.1729c0.1084,0,0.2183-0.0117,0.3281-0.0361 c0.8086-0.1807-0.0405-1.8126-0.2212-2.6212c-1.0519-4.7134,0.0356-12.9039-0.03-16.2359c0.4774-0.1182,0.9647-0.2685,1.4656-0.472 c0.1052-0.0427,0.2092-0.1005,0.3143-0.1467c1.0592,2.2497,3.4929,6.5046,7.9846,10.1542 C61.1878,177.7028,53.2571,188.6155,50.8687,191.5836z M82.2901,173.1061c-2.9419-0.915-8.6788-2.1317-15.7452-5.5009 c-7.4769-3.566-11.4688-10.8408-12.6292-13.3435c1.9733-1.4291,3.5963-3.321,4.0984-5.1869 c0.2396-0.0336,0.4724-0.0962,0.7056-0.1563l2.591,1.2399l7.802,8.4965c0.2891,0.2715,0.6577,0.4053,1.0249,0.4053 c0.4004,0,0.7998-0.1592,1.0952-0.4746c0.5664-0.6045-0.807-1.6054-1.4115-2.1718l-8.2326-8.9182 c1.1132-0.8387,2.7587-1.7222,3.4667-2.7839c0.2411-0.3616,0.5958-0.6808-0.0128-1.3369c2.5687,1.2845,8.4808,1.8901,12.5945,10.412 c1.4805,3.067,3.8793,6.7877,4.6529,10.1589C83.1448,167.6705,81.3108,171.5627,82.2901,173.1061z M92.8194,200.8346 c2.1147-2.8574,14.3584-4.1807,19.7988-4.7686c0.6538-0.0709,1.2708-0.1384,1.8676-0.205c2.5889,2.8484,4.8907,5.3969,6.6985,7.424 C106.8162,202.8176,95.7707,201.9374,92.8194,200.8346z M125.2967,203.4044c-0.0025-0.0029-0.004-0.0063-0.0066-0.0092 c-3.5947-4.0976-11.2933-10.4566-18.9154-18.7687c-2.1432-2.3372-3.7392-6.6491-6.0757-8.7048 c-9.8392-8.6569-16.4199-17.802-17.6871-19.1711c-0.6725-1.6815-1.5057-3.2908-2.5469-4.7255 c-1.1733-1.6169-2.4555-3.0505-3.761-4.3209c1.0012,0.2413,2.0577,0.4562,3.1583,0.6384 c4.2377,4.1084,8.1275,10.8693,14.7322,15.0126c5.5418,3.4766,9.5123,10.1064,14.1359,15.1191 c10.1193,10.9709,19.1531,21.0318,22.7525,25.0562C129.1141,203.4955,127.1833,203.4534,125.2967,203.4044z M193.4609,202.5432 c-2.8311,0.1356-5.7827,0.2459-8.7979,0.3418c0.3639-3.5428,0.9565-7.1877,1.6439-10.6666 c3.3907,0.9943,7.2205-0.6652,10.3299,0.229C195.4483,196.0671,194.389,199.4351,193.4609,202.5432z M185.9327,296.993 c-5.941-1.5155-11.3174,0.8274-17.5137,1.0486c-7.8129,0.2783-15.0079,0.1881-21.4705-0.1116 c0.2822-19.541,0.5071-37.8957,0.5184-43.448c0.0015-0.7001-0.0062-1.4902-0.0203-2.3411c5.7196,0.343,9.4813-1.1315,19.3875,0.5609 c6.5789,1.1239,12.8173,1.6268,18.1053-0.6493c0.0206,0.8401,0.0402,1.6666,0.0578,2.4598l0.207,8.9814 C188.0342,282.5839,184.2045,292.4137,185.9327,296.993z M174.6172,189.1617c-4.9014-0.0068-12.1977-2.9289-14.3214-0.0889 c-0.6207-6.9243-1.4465-13.8697-2.4709-20.78c6.5073-3.0707,13.9115-4.2621,14.8104-7.9504 c0.1475,0.8347,0.3229,1.6796,0.5611,2.5429c1.7224,6.2422,3.6583,11.3818,5.0178,14.678 c-0.2424,1.4117-1.0583,6.1584-2.0082,11.6051c-0.0162-0.0005-0.0313-0.0048-0.0476-0.0048L174.6172,189.1617z M175.6823,192.1631 c-0.6761,3.8576-1.3772,7.8163-1.9602,11.0186c-0.7237,0.0176-1.4474,0.035-2.1703,0.0524 c-2.3613,0.0566-4.7686,0.1143-7.2139,0.1768c-1.0114,0.0261-2.0266,0.0497-3.0439,0.0714 c-0.1835-3.7852-0.4332-7.5898-0.7427-11.4044c3.8632,0.0701,9.269,0.0773,14.0621,0.0839L175.6823,192.1631z M177.5195,144.6896 c2.3721,0.5547,5.7443,1.6049,6.9831,0.006c0.1838,0.1605,0,0,0.2001,0.1379l-0.5493,14.218 c-0.0322,0.8271,0.6133,1.5244,1.4414,1.5566c0.0195,0.001,0.0391,0.001,0.0586,0.001c0.8018,0,0.5198-2.1101,0.5511-2.9187 l1.4534-11.6317c0.8085,0.1732,1.6391,0.2516,2.4457,0.2516c0.5527,0,1.0938-0.0361,1.6084-0.1016 c0.4312-0.0545,0.8759-0.1379,1.3218-0.2415c0.7117,2.7822,1.9976,9.3976,0.3804,16.3372 c-1.627,6.9814-8.5029,13.543-11.5508,16.1699c-1.2344-2.8193-2.5827-9.2249-5.7744-16.3857 C170.8853,150.4138,179.9917,149.3074,177.5195,144.6896z M196.336,162.985c0.4534-1.9455,0.697-3.8531,0.8021-5.6714 c1.8216,3.5191,4.4224,7.4305,8.0482,10.7505c-2.8834,7.8279-5.4115,14.9854-7.566,21.4172 c-3.1276-1.8732-5.0289,1.2047-10.6915-0.256c1.7696-8.1395,3.8491-14.8262,4.2892-16.2107 C193.4711,170.0698,195.4892,166.6198,196.336,162.985z M180.9571,182.3336c0.1162,0.0273,0.2334,0.041,0.3496,0.041 c0.3242,0,0.6426-0.1055,0.9063-0.3047c0.1873-0.142,2.0204-1.5489,4.3239-3.8036c-2.7994,2.5609-0.8997,14.5303-4.9,24.7094 c-1.6074,0.0459-3.2265,0.0889-4.8516,0.1299C177.9555,196.6518,180.7813,182.2916,180.9571,182.3336z M220.2276,196.7174 c0,2.5347-5.5684,4.0001-13.9702,4.9031c-1.0712-4.0918,2.3139-5.1642,2.1834-8.4078 C215.2754,196.4044,220.2276,192.608,220.2276,196.7174z M203.0929,201.9254c-2.032,0.1738-4.1962,0.321-6.4504,0.4498 c4.4664-23.0197,11.9288-24.1089,10.9952-32.2848c1.1999,0.8904,2.5011,1.7018,3.8937,2.426 C207.9856,183.4766,205.1465,193.369,203.0929,201.9254z M239.168,141.4899c5.3358,4.9464,9.4629,9.4658,10.8809,11.9375 c-3.4189,1.2188-12.54,3.5898-23.1846-0.917c-7.7959-3.3027-16.1514-8.9541-16.2354-9.0107 c-0.6826-0.4629-1.6162-0.2871-2.084,0.3984c-0.4648,0.6855,1.6472,1.8911,2.3403,2.3455c1.7114,1.1216,1.9133,2.3431,6.6422,4.9762 c7.471,8.4887,7.0869,18.7959,6.374,21.5387c-4.1019-0.2009-9.3522-0.6958-12.3701-2.1745 c-5.3997-2.6456-7.4564-7.3593-10.0555-11.4818c-3.4545-5.4792-4.8149-10.782-5.0905-11.9719 c-0.1832-0.9003-0.3665-1.6452-0.5224-2.2219c0.589-0.3248,0.4254-0.1046,0.8801-0.5565c1.502,1.2026,3.8869,2.2747,5.5571,1.2303 l9.944,14.855c0.2891,0.4326,0.7637,0.666,1.2471,0.666c0.2871,0,0.5771-0.082,0.833-0.2539 c0.6885-0.46-0.7258-2.0884-1.1867-2.7759l-7.6983-13.1927c1.9112-0.9128,3.406-2.5963,3.9465-4.4161 c0.3939-0.144,0.7614-0.3466,1.1061-0.5887c2.4987,0.6768,12.1373,1.7667,22.4359,5.9423c0.1846,0.0752,0.375,0.1104,0.5625,0.1104 c0.5928,0,3.2929,1.8242,3.5292,1.2412c0.3115-0.7676-0.0586-1.6426-0.8262-1.9531c-9.2649-3.757-19.6895-6.785-23.7134-7.9056 c0.1843-0.4412,0.337-0.9116,0.4419-1.4177c0.1191-0.574,0.1781-1.1904,0.1782-1.8226c0.0158,0.001,0.0305,0.0057,0.0464,0.0062 c0.0615,0.002,0.4326,0.0137,1.0693,0.0137c1.2651,0,3.5807-0.0443,6.6044-0.2901 C224.5036,132.7802,232.3321,135.1528,239.168,141.4899z M251.8741,89.6979c-3.5215,6.2441-11.9639,10.6113-15.626,12.2764 c-0.1033-0.8018-0.2256-1.8437-0.3477-3.0784c0.0511-0.2787,0.022-0.5603-0.0779-0.8151c-0.314-3.4179-1.4477-9.3746-1.1924-14.7097 c0.6383-13.3404,6.1277-11.8085,6.9354-15.0422c2.1231,1.1987,4.5212,1.8859,6.4219,1.5662 c0.1304,0.2042,0.2844,0.3901,0.4365,0.5773l-4.5244,13.5027c-0.2637,0.7852,0.1602,1.6357,0.9453,1.8984 c0.1582,0.0537,0.3184,0.0781,0.4766,0.0781c0.627,0,1.0987-3.3945,1.3087-4.0215l4.2816-9.4424 c1.2262,0.663,2.5886,1.0839,3.8492,1.2852c0.4291,0.0682,0.879,0.1125,1.3355,0.1381 C255.9981,76.781,255.3749,83.4922,251.8741,89.6979z M300.3322,80.0308c4.5469,5.6738,7.7216,14.2726,8.3896,17.045 c-3.6309,0.2012-13.0801-0.0996-21.9932-7.3848c-6.5547-5.3584-12.9883-13.1289-13.0527-13.207 c-0.5273-0.6387-1.4717-0.7305-2.1113-0.2031s0.8998,2.3027,1.4272,2.9413c0.1757,0.2133,1.3392,2.7542,5.1393,6.61 c4.7858,10.2457,1.522,20.0291,0.0673,22.4604c-20.064-6.9518-19.8461-27.0212-19.6959-29.6448 c0.0766-0.9133,1.4042-2.3617,0.6068-4.9589c0.6567-0.1464,1.2867-0.3569,1.8499-0.6628c1.1046,1.5779,2.5281,2.6398,4.1395,3.1232 l5.3712,17.0458c0.2021,0.6396,0.793,1.0488,1.4307,1.0488c0.1484,0,0.3008-0.0225,0.4512-0.0693 c0.79-0.249-0.6428-2.1622-0.8918-2.9522l-3.1516-14.8702c2.09-0.3397,3.9976-1.5352,5.0278-3.1307 c0.4178-0.0276,0.827-0.1187,1.2253-0.2541c2.2075,1.3504,12.5908,7.7915,21.3069,14.6935 c0.2764,0.2188,0.6045,0.3242,0.9307,0.3242c0.4424,0,0.8809-0.1953,1.1768-0.5684c0.5146-0.6494,0.4053-1.5938-0.2441-2.1074 c-7.838-6.2065-16.9942-12.0398-20.5413-14.2445c0.3008-0.3715,0.5797-0.7799,0.8226-1.236 c0.2758-0.518,0.5056-1.0936,0.6833-1.7008c0.0151,0.0054,0.028,0.0142,0.0433,0.0192c0.1745,0.0575,2.9775,0.9651,7.4346,1.8857 C292.7577,70.5417,294.596,72.8706,300.3322,80.0308z M298.5449,53.5627c6.3945,2.8789,10.3741,7.769,12.5245,9.7641 c-1.9713,5.5551-9.876,5.8125-16.2432,5.0732c-8.7734-1.0342-15.0889-3.082-15.1514-3.1025 c-0.2047-0.0681-0.413-0.0872-0.6146-0.0673c-0.0307-0.8384-0.1758-1.6785-0.4869-2.4757 c4.0654-0.5352,9.7369-3.1191,15.8014-1.9941c0.8145,0.1533,4.6556,1.292,4.807,0.4766c0.1514-0.8145-0.3867-1.5977-1.2012-1.748 c-6.9004-1.2813-16.5811-0.167-20.457,0.376c-0.2739-1.5282-1.0744-3.1234-2.2935-4.52 C277.3138,53.9716,285.7761,49.0713,298.5449,53.5627z M256.4848,44.4847c0.0682-0.1353,0.1146-0.2795,0.1396-0.4299 c1.5187-4.5259,6.2261-11.7471,15.7078-15.5134c1.703,2.001,6.4681,18.0425,0.1957,24.5348 c-1.722-1.0519-3.6442-1.6035-5.5375-1.5472c-0.2738-0.4126-0.5858-0.7958-0.9228-1.1567c0.5836-1.5608-1.2247-3.2776,3.1835-7.209 c0.6186-0.5517,0.1426-1.6372-0.582-2.04c-0.7217-0.4028-1.978,1.416-2.3794,2.1416c-1.2158,2.1868-2.0223,3.4216-2.7142,5.2167 c-0.6511-0.3436-1.3472-0.6293-2.0919-0.8353c-1.6095-0.4462-3.3372-0.5157-4.9289-0.2554 C256.6745,46.8621,256.2759,45.1489,256.4848,44.4847z M255.2258,49.9882c1.4561-0.9141,3.6533-0.5664,5.7021,0 c0.7963,0.2204,1.515,1.1742,2.3811,1.8904c0.0181,0.0167,0.0398,0.0297,0.0588,0.0455c0.5583,0.4734,1.0737,1.0782,1.4712,1.8607 c0.2939,0.5781,0.9287,0.8965,1.5635,0.8047c2.0977-0.3232,5.2793-0.566,7.0361,1.186c1.4336,1.4287,1.3545,4.2935,1.165,5.5953 c-0.0049,0.0303-0.0088,0.0605-0.0117,0.0908c-0.0303,0.3271,0.0479,0.6426,0.207,0.9072c0.0381,0.0645,0.082,0.126,0.1299,0.1855 c0.0283,0.0332,0.0576,0.0664,0.0889,0.0977c1.4277,1.4873,2.3822,3.7885,1.4847,5.476c-0.2578,0.4844-2.3441,2.3336-3.7953,2.0758 c-0.7148-0.124-1.418,0.2744-1.6709,0.9561c-0.3838,1.0381-1.9219,2.207-3.7363,2.2871c-1.8975,0.083-3.499-1.0703-4.5752-3.3418 c-0.2266-0.4785-0.6904-0.8027-1.2178-0.8516c-0.0459-0.0039-0.0918-0.0059-0.1377-0.0059c-0.4785,0-0.9231,1.2841-1.2073,1.6767 c-0.542,0.75-2.4568,0.2823-4.9275-0.1142c-2.5703-0.4102-4.5508-1.6738-5.0439-3.2188c-0.1406-0.4424-0.4795-0.7949-0.915-0.9531 c-0.4385-0.1602-0.9238-0.1074-1.3145,0.1406c-1.0176,0.6426-4.896,1.374-7.3735-0.9609c-0.8877-0.8359-1.9399-4.1162-1.0796-5.6777 c0.3506-0.6357,0.1953-1.4326-0.3701-1.8896c-2.1006-1.7012-2.9941-3.8086-2.3311-5.5c0.3286-0.8373,0.9954-1.4905,1.8976-1.9215 c0.0328-0.0145,0.0648-0.0298,0.0966-0.0468c0.9272-0.4183,2.0923-0.6076,3.4022-0.517c0.5977,0.04,1.1318-0.2617,1.4131-0.7715 c0.3841-0.6949,1.4888-1.2138,2.8653-1.3706c0.0046,0.0001,0.009,0.0015,0.0136,0.0015c0.0129,0,0.0255-0.0062,0.0384-0.0065 c0.351-0.0375,0.7147-0.0577,1.0934-0.0443c1.9414,0.0459,4.2588,0.8184,5.0566,2.4385c0.1875,0.3809,0.5283,0.6641,0.9365,0.7803 C254.0303,51.4078,254.8664,50.2138,255.2258,49.9882z M225.3106,25.0768c1.191-2.9434,1.2109-5.1133,1.7285-5.8872 c19.4089,11.1116,25.8779,23.2728,27.057,25.7927c-0.2271,0.7516-0.3995,1.4359-0.5273,2.0287 c-1.6864-1.3234-3.9448-1.8904-5.8705-1.9361c-0.1795-0.0046-0.3526,0.0051-0.5284,0.0087 c-1.9003-2.3151-6.8587-6.9407-9.2207-9.5208c-0.5605-0.6123-3.3788-4.3253-3.9901-3.7667 c-0.6113,0.5596-0.6533,1.5083-0.0938,2.1191c1.9661,2.1478,7.3114,8.6076,9.9514,11.8133 c-0.9127,0.3691-1.6894,0.8775-2.2571,1.5153c-1.1653,0.0016-2.239,0.1907-3.212,0.5162c-2.093-1.6876-4.4625-3.0828-7.1003-4.1821 C225.1178,36.5103,223.0822,30.5839,225.3106,25.0768z M193.2374,49.3551c3.3936-1.96,12.6273-7.6332,23.9671-7.0903 c7.7875,0.3765,13.585,3.6091,18.3641,7.1259c-0.67,0.6358-1.2103,1.3866-1.5549,2.2652c-0.0146,0.0372-0.0198,0.0761-0.0336,0.1135 c-3.6703-0.4645-12.5956-0.6776-17.4777-0.0621c-0.8223,0.1035-2.6771-0.1061-2.5736,0.7151 c0.1045,0.8223,0.8555,1.4014,1.6758,1.3008c4.5135-0.5695,14.512,0.585,18.0394,1.0295c0.0362,0.2786,0.1036,0.5567,0.1751,0.8345 c-2.4423,0.2605-9.2236,1.2287-15.738,4.3703C203.2258,60.1711,200.2258,51.201,193.2374,49.3551z M206.3643,81.1012 c-0.0098-2.5059,0.625-9.2441,7.1182-14.6992c8.2432-6.9258,18.9135-10.1585,21.4717-7.9072 c0.0685,0.0603,0.1785-0.0235,0.264-0.045c0.349,0.4762,0.7332,0.9434,1.1891,1.3858c-0.251,0.8875-0.238,1.8055,0.0025,2.7233 c-3.1522,1.5182-9.256,5.4039-13.3276,8.4932c-0.6602,0.501-2.8224,1.5911-2.3224,2.2503c0.2949,0.3896,0.7432,0.5938,1.1963,0.5938 c0.3164,0,0.6348-0.0996,0.9053-0.3047c3.8494-2.9209,10.6197-8.5394,14.9421-8.3716c0.3065,0.3854,0.6414,0.767,1.0355,1.1382 c0.0825,0.0778,0.8757,0.6603,0.9613,0.7366c-2.2979,0.4468-3.2089,5.5532-6.6033,10.9752 C223.282,84.7028,210.5024,84.201,206.3643,81.1012z M233.5897,104.4758c0.0978,0.3978,0.3466,0.7432,0.7043,0.9476 c0.2295,0.1318,0.4873,0.1982,0.7451,0.1982c0.1807,0,0.3613-0.0322,0.5342-0.0986c0.0914-0.0347,0.5228-0.2018,1.1959-0.4922 c-0.8787,2.1006-2.0956,5.0378-3.5457,8.6085c-1.0103-0.2538-2.0677-0.4836-3.1593-0.6854 C231.4548,109.5863,232.653,106.7115,233.5897,104.4758z M227.5293,115.5768c6.9453,0.9668,12.6699,3.4834,15.2939,4.7949 c-2.2822,2.6533-7.834,8.3604-14.166,9.4297c-8.7129,1.4717-15.3486,1.2783-15.4131,1.2773 c-0.2202-0.0107-0.4261,0.0251-0.6121,0.0969c-0.2647-0.7921-0.6384-1.554-1.1584-2.2287c3.751-1.6553,9.4481-5.4836,15.5818-6.1076 c0.8242-0.084,3.8547-0.3113,3.7707-1.1356c-0.083-0.8252-0.8311-1.417-1.6436-1.3408c-6.9824,0.71-15.96,4.4961-19.5283,6.1064 c-0.6919-1.3907-1.9088-2.6969-3.4705-3.6951C207.7936,120.8708,214.3747,112.5414,227.5293,115.5768z M195.9581,99.3649 c2.1957,1.4417,8.4901,11.2318,6.9794,21.9864c-1.9444-0.5222-3.9405-0.5114-5.7323,0.0742 c-0.378-0.3185-0.7857-0.5968-1.2113-0.8466c0.1216-1.6604,0.4314-5.1677,1.0316-7.8175c0.1826-0.8076-0.3232-1.6113-1.1318-1.7939 c-0.8105-0.1855-1.6104,0.3232-1.7939,1.1318c-0.5543,2.4452-0.8704,5.4565-1.03,7.3727c-0.7246-0.1487-1.4741-0.2307-2.2424-0.2272 c-1.6619,0.025-3.3322,0.4403-4.7819,1.1313C185.8199,116.1523,184.7027,105.0521,195.9581,99.3649z M184.3067,124.9528 c0.4248-0.0039,0.8281-0.1875,1.1094-0.5049c1.1406-1.2861,3.333-2.1719,5.4551-2.2031c1.3799,0.0059,3.3525,0.3008,4.9033,1.9502 c0.4434,0.4717,1.1396,0.6045,1.7256,0.333c1.9229-0.8955,4.9938-1.5986,7.1725-0.4121c1.7764,0.9688,2.4183,3.3145,2.6019,4.6172 c0.0039,0.0313,0.0098,0.0625,0.0156,0.0938c0.0625,0.3213,0.2266,0.6016,0.4521,0.8105c0.001,0,0.001,0,0.001,0.001 c0.0557,0.0508,0.1152,0.0986,0.1787,0.1416h0.001c0,0,0,0.001,0.001,0.001c0.0352,0.0234,0.0713,0.0459,0.1074,0.0664 c1.7881,1.0264,2.3418,3.5645,1.9531,5.4365c-0.1113,0.5371-0.5879,2.3027-2.0498,2.4609c-0.7217,0.0781-1.2832,0.6621-1.334,1.3867 c-0.0771,1.1035-1.2246,2.6572-2.9434,3.2441c-1.8164,0.6201-3.6611-0.0449-5.3311-1.9219 c-0.3516-0.3965-0.8867-0.5752-1.4072-0.4756c-0.5205,0.1025-0.9482,0.4707-1.126,0.9697c-0.3105,0.873-1.9785,1.9707-4.458,2.2852 c-2.5801,0.3262-4.8369-0.3301-5.7441-1.6738c-0.2598-0.3848-0.6826-0.6279-1.1465-0.6582 c-0.0322-0.002-0.0645-0.0029-0.0967-0.0029c-0.4287,0-0.8389,0.1836-1.125,0.5078c-0.6686,0.7565-3.8795,2.0535-6.53,1.1823 c-0.0043-0.0015-0.0085-0.0029-0.0128-0.0043c-0.4964-0.1638-0.9908-0.3611-1.469-0.6046 c-1.0879-0.5537-2.3525-2.8313-1.9658-4.5715c0.1582-0.71-0.2148-1.4297-0.8857-1.71c-2.4932-1.042-3.9424-2.8135-3.7803-4.623 c0.08-0.898,0.5374-1.713,1.2852-2.3804c0.0242-0.0208,0.0477-0.0417,0.0706-0.0641c0.7728-0.6633,1.84-1.1736,3.1257-1.4578 c0.5684-0.126,1.0117-0.5693,1.1396-1.1367c0.2197-0.9814,1.6377-2.0049,3.4482-2.4883c1.8779-0.501,4.3184-0.4121,5.541,0.9199 C183.4766,124.7799,183.8721,124.9235,184.3067,124.9528z M149.7735,107.7408c-0.5576-3.125-0.2725-5.2471,0.0059-6.1348 c21.7461,5.213,31.8294,12.1151,33.2116,17.1568c-0.007,0.7854,0.0198,1.4907,0.0636,2.0956 c-1.9913-0.7971-4.3184-0.7078-6.1805-0.2095c-0.1724,0.0461-0.3347,0.1038-0.5014,0.1566c-2.473-1.687-11.36-7.7352-14.3511-9.5482 c-0.707-0.4297-1.6318-0.2051-2.0596,0.5049c-0.4297,0.708,2.2995,2.2227,3.0085,2.6514c2.4897,1.5096,6.9311,5.6179,10.3649,7.9534 c-0.7725,0.61-1.3754,1.3151-1.7416,2.0866c-1.1083,0.326-2.078,0.804-2.9157,1.3826c-2.4998-1.041-5.1869-1.7186-8.0504-2.0313 C152.7923,118.7438,150.4604,111.5854,149.7735,107.7408z M168.6725,25.6055c7.0615,1.7524,13.5658,6.6661,15.7767,8.463 c-4.0746-1.5696-5.7341,9.4091-21.9678,7.4697c-8.4069-1.0043-13.3145-0.2308-18.3877-2.5796 c-0.7537-0.3489-1.6133,0.314-1.8018,1.1201c-0.1885,0.8066,0.3135,1.6133,1.1201,1.8013c0.2687,0.063,4.5331,1.0472,9.8922,1.8068 c10.0916,3.0674,13.3639,14.9983,13.683,17.8129c-3.3116,1.0919-4.3757,2.3998-7.2935,2.4034 c-7.9847,0.0099-6.1706-1.4991-8.617-2.3617c-3.2324-1.1397-3.1702,1.3926-9.915-4.7255c-4.7923-4.347-8.361-8.3241-9.0536-9.347 c-0.496-0.7775-0.9359-1.409-1.2896-1.8927c0.4332-0.5148,0.8062-1.0645,1.0682-1.6497c1.8336,0.584,3.6077,0.5602,5.1813-0.0326 l14.6155,10.2943c0.2617,0.1846,0.5635,0.2734,0.8623,0.2734c0.4707,0,0.9355-0.2217,1.2275-0.6367 c0.4766-0.6768-2.3806-2.2524-3.0583-2.73l-10.9688-8.9838c1.4553-1.5382,2.2466-3.6459,2.0974-5.5386 c0.3156-0.2758,0.5858-0.5969,0.8204-0.9467c2.5766-0.2663,12.062-2.3538,23.1708-2.151c0.0088,0,2.6992,0.9053,2.709,0.9053 c0.8154,0,1.4844-0.6543,1.499-1.4731c0.0146-0.8281-0.6445-1.5117-1.4736-1.5269c-9.992-0.1746-20.8126,0.741-24.9707,1.1393 c0.0137-0.4784-0.0127-0.973-0.0967-1.4835c-0.0949-0.5793-0.2615-1.1765-0.4887-1.767c0.0154-0.0048,0.0309-0.0026,0.0463-0.0079 c0.1738-0.0604,2.9535-1.0399,7.0558-3.0128C156.5024,26.2054,159.7865,23.4003,168.6725,25.6055z M150.0342,5.5909 c6.8311-1.5913,13.849-1.502,16.766-1.2197c-3.4155,0.8555-5.0278,12.9667-10.5532,16.2386 c-7.6006,4.5015-14.1102,5.7956-14.1727,5.8176c-0.2032,0.0708-0.3799,0.1822-0.5278,0.3201 c-0.5332-0.6481-1.1586-1.2281-1.8902-1.6732c2.9063-2.8926,9.2988-8.9097,14.8008-11.6943 c0.7393-0.374,1.0352-1.2769,0.6602-2.0156c-0.373-0.7388-3.0642,0.6332-3.8064,1.0068 c-6.2607,3.1694-11.4895,8.2588-14.2415,11.043c-1.1431-1.0472-2.7576-1.8036-4.5705-2.1749 C133.3162,18.9388,137.1899,9.7573,150.0342,5.5909z M130.5874,22.9882c2.0068,0.2666,4.4341,2.2438,5.0737,3.3942 c0.0146,0.0269,0.0303,0.0537,0.0469,0.0796c0.1787,0.2856,0.4404,0.4912,0.7354,0.604c0,0,0,0,0.001,0 c0.0615,0.0239,0.125,0.0435,0.1904,0.0586c0,0,0.001,0.0005,0.002,0.0005c0.043,0.0103,0.0869,0.0313,0.1309,0.0249 c2.756-0.4025,4.0741,2.2179,4.3837,4.1041c0.0889,0.5415-0.3319,2.6278-1.6385,3.3011c-0.6455,0.332-0.96,1.0791-0.748,1.7729 c0.3242,1.0581,0.844,3.5593-0.5496,4.7238c-1.4746,1.229-3.0319,1.6276-6.6975-0.5187c-0.4576-0.2679-1.0352-0.2188-1.4844,0.0625 c-0.4492,0.2817-0.7168,0.7793-0.7021,1.3091c0.0234,0.9268-1.1387,2.5498-3.3398,3.7334c-2.292,1.2324-4.6328,1.4287-5.9624,0.5 c-0.3804-0.2651-0.8623-0.3408-1.3066-0.2021c-0.4434,0.1382-0.7974,0.4741-0.959,0.9092 c-0.4185,1.1279-2.9835,4.0804-6.3672,3.7386c-1.2134-0.127-4.1166-2.1234-4.3798-3.887c-0.1069-0.7183-0.7144-1.2568-1.4404-1.2778 c-2.7021-0.0771-4.8135,0.1885-5.312-1.5585c-0.2485-0.8699,0.0098-3.1971,0.4725-4.0917c0.0118-0.0222,0.023-0.0444,0.0338-0.0673 c0.4825-0.899,1.2972-1.761,2.3976-2.4901c0.4854-0.3213,0.7407-0.894,0.6558-1.4697c-0.147-0.9956,0.8091-2.46,2.3257-3.5615 c1.1265-0.8188,2.6328-1.458,3.9917-1.458c0.5366,0,1.0508,0.1001,1.5088,0.3271c0.3794,0.1895,0.8232,0.208,1.2178,0.0518 c0.395-0.1558,0.7056-0.4717,0.854-0.8696c0.6021-1.6099,2.3301-3.2236,4.3003-4.0151c0.7906-0.3172,1.8383-0.5909,3.0018-0.5264 c0.0128,0.0003,0.0245,0.0059,0.0373,0.0059c0.008,0,0.0162-0.0037,0.0242-0.0038c0.7059,0.0464,1.4533,0.2184,2.2121,0.5839 c0.583,0.2803,1.2813,0.1572,1.7305-0.3096C126.501,24.442,128.1294,22.6635,130.5874,22.9882z M114.5528,3.0353 c2.5681,0.5585,14.8006,9.9316,14.4099,18.015c-2.0029,0.2106-3.8624,0.937-5.3249,2.1266 c-0.4676-0.1616-0.9478-0.2767-1.4343-0.3591c-0.4833-1.5947-1.4526-4.9753-1.844-7.6619 c-0.1196-0.8198-0.8848-1.3911-1.6997-1.2686c-0.8198,0.1191-1.3877,0.8809-1.2686,1.7002c0.3603,2.476,1.1444,5.3928,1.6837,7.2393 c-0.7267,0.122-1.4542,0.3175-2.1719,0.6059c-1.5419,0.6196-2.9519,1.6069-4.0568,2.7727 C111.119,22.3445,105.9492,10.4988,114.5528,3.0353z M74.4576,27.4381c-0.994-3.0157-2.1396-4.7993-2.1987-5.728 c23.9031-3.6368,34.691,2.7982,37.1572,4.0859c0.2757,0.7358,0.554,1.3848,0.8123,1.9338c-2.1439-0.0283-4.2841,0.8914-5.843,2.0233 c-0.1445,0.105-0.2753,0.2172-0.412,0.3264c-2.9135-0.687-13.3799-3.1404-16.8228-3.759c-0.8105-0.145-1.5947,0.396-1.7417,1.2114 c-0.1465,0.8154,3.3841,1.2035,4.1995,1.35c2.8658,0.5145,8.0475,2.7988,12.0909,3.7454c-0.5021,0.8469-0.8117,1.7217-0.8763,2.5731 c-0.9169,0.702-1.65,1.496-2.2239,2.3364c-2.7067-0.0754-5.4592,0.2574-8.2455,0.9952 C81.2243,36.6221,76.6725,34.1584,74.4576,27.4381z M63.6915,66.1969c1.5093-3.6182,5.0073-13.6019,14.3428-20.0385 c4.0724-2.8084,8.9327-3.6114,12.7686-4.6662c0.0235-0.0075,0.048-0.0097,0.0711-0.0184c2.1861-0.5952,4.3456-0.9069,6.4913-0.9447 c-0.1494,0.9161-0.1241,1.8453,0.1362,2.7571c0.011,0.0385,0.0305,0.0724,0.0421,0.1105 c-3.1993,1.8571-9.2767,6.5136-12.7859,9.9669c-0.5903,0.5811-3.3387,2.1271-2.7571,2.717 c0.2935,0.2988,0.6812,0.4482,1.0688,0.4482c0.3799,0,0.7603-0.1436,1.0522-0.4307c3.2396-3.1887,11.89-8.3386,14.9643-10.1262 c0.1979,0.1996,0.4203,0.3799,0.6459,0.5576c-1.783,1.6884-6.5851,6.5718-9.8578,13.0204 C82.0098,64.3621,65.2636,69.1408,63.6915,66.1969z M108.9278,72.8818c-2.4138,2.1751-3.4075,4.1191-5.7021,5.8723 c-3.8478,2.9399-8.7602,3.9839-10.4681,4.7133c-3.8287-1.5371-4.4822-7.7266-2.6307-16.0029 c0.5336-2.384,0.9193-4.7958,1.8221-7.0082c2.5873-6.3396,4.9609-5.4099,6.8085-7.5745c2.1977-2.5748,0.5106-2.9362,3.6408-4.7299 c0.0791-0.0453,0.1274-0.1268,0.1823-0.1957c0.5663,0.1669,1.1552,0.3052,1.786,0.3803c0.3389,0.8577,0.9064,1.5795,1.6547,2.1631 c-1.5847,3.1187-5.6063,11.2631-6.9687,16.1904c-0.2207,0.7979,0.2476,1.624,1.0459,1.8447 c0.1338,0.0371,0.2686,0.0547,0.4009,0.0547c0.6577,0,1.2655-3.1691,1.4496-3.8341c1.2878-4.6575,5.2878-10.0192,6.7942-12.9865 c0.4775,0.1204,0.9753,0.2206,1.514,0.2767c0.1119,0.0117,0.23,0.0087,0.3433,0.0173c-0.1211,2.488,0.024,7.3896,2.2656,12.7085 C109.4385,64.7554,113.2473,68.9897,108.9278,72.8818z M117.8215,69.1371c-4.92-6.6573-4.3535-14.4136-4.2019-17.1719 c2.4138-0.3339,4.7354-1.2475,6.0558-2.6589c0.2269,0.0832,0.4615,0.1375,0.6954,0.1942l4.9826,11.6367 c0.2129,0.623,0.4103,2.8586,1.0344,2.8586c0.1602,0,0.3242-0.0254,0.4844-0.0801c0.7842-0.2676,1.2031-1.1201,0.9355-1.9043 l-4.2346-12.4168c1.3771-0.2171,2.7154-0.7096,3.8391-1.3146c0.3824-0.2056,0.7671-0.443,1.1457-0.6995 c1.6631,2.3406,6.1103,7.1794,7.0934,14.2375c0.2665,1.9148,0.1024,4.0018-0.3168,6.0983c-0.501,2.5055-0.7535,6.1782-1.6832,8.4336 c-1.1769,2.855-2.8327,2.234-3.8456,5.5804C127.6417,79.7418,122.4811,75.4418,117.8215,69.1371z M138.4158,111.9592 c-0.7012-2.2822-0.7758-4.7941-2.0908-6.5547c-3.8226-5.1184-2.8465-8.2794-4.1531-11.7282 c-1.2516-3.3035-2.4136-6.1733-3.4336-8.5775c0.217,0.2099,0.3517,0.3367,0.3848,0.3676c0.2793,0.2617,0.6465,0.4043,1.0244,0.4043 c0.0654,0,0.1318-0.0039,0.1973-0.0127c0.4453-0.0596,0.8408-0.3154,1.0781-0.6973c0.0277-0.0446,0.1123-0.1829,0.2377-0.3955 c1.6724,3.8066,6.4362,11.0981,8.4924,22.3032c1.2855,7.0049,2.2025,6.7376,3.3304,10.5021 c0.7204,2.4042,1.444,4.9131,2.1631,7.5214c-1.1172,0.2834-2.1976,0.6021-3.239,0.952 C141.0996,121.018,139.7538,116.3139,138.4158,111.9592z M125.8086,140.0485c2.708-2.834,8.8136-9.9582,19.838-12.6135 c7.5812-1.826,15.2268-1.2715,20.8005,0.7617c-0.4646,0.7986-0.7723,1.6711-0.8563,2.6115 c-0.0035,0.0396,0.0023,0.078-0.0004,0.1175c-3.6526,0.5841-13.7693,2.3197-18.2838,4.2829 c-0.7598,0.3311-1.1084,1.2148-0.7783,1.9736c0.2461,0.5654,0.7979,0.9023,1.377,0.9023c0.1992,0,0.4023-0.04,0.5967-0.124 c4.1688-1.8125,14.0908-3.5131,17.6026-4.0778c0.113,0.2575,0.2559,0.5059,0.4028,0.7529 c-2.2698,0.9354-8.5058,3.7682-13.8757,8.612C144.2157,147.3033,127.7364,142.5839,125.8086,140.0485z M149.3425,146.6486 c-0.613,0.7339-1.1949,1.5002-1.7344,2.3015c-0.1255-0.6592-0.2561-1.3022-0.4478-2.2239 C147.8992,146.7191,148.626,146.6918,149.3425,146.6486z M147.3213,166.8317c-0.7129-2.4023-2.1973-8.465,2.0212-15.8222 c7.1568-12.4817,18.9476-13.8565,19.0706-13.9014c0.0859-0.0317,0.1652-0.0729,0.2414-0.1178 c0.4686,0.3589,0.9684,0.6993,1.5301,0.9957c0.0081,0.9224,0.2784,1.7999,0.7672,2.6133 c-2.5977,2.3409-9.2757,8.4984-12.3179,12.6074c-0.4922,0.666-0.3525,1.6055,0.3135,2.0986 c0.2686,0.1982,1.3782-2.7869,1.6887-2.7869c0.459,0,0.9121-0.21,1.207-0.6074c2.8751-3.8845,8.723-6.9219,11.1934-9.1498 c0.4026,0.2839,0.8314,0.5562,1.3141,0.8019c0.1006,0.0513,0.2119,0.0917,0.315,0.1406c-1.006,2.2737-2.6271,6.8994-2.4431,12.684 c-1.4294,1.7089-3.0606,3.1389-4.7932,4.3355c-1.4485,1.0004-1.821,2.692-3.3525,3.3926c-2.0955,0.9587-5.3607,0.8076-7.3513,1.323 C152.5928,166.5089,149.0097,166.7702,147.3213,166.8317z M150.9189,169.584c1.1749-0.1307,2.5192-0.326,3.9725-0.6122 c0.4567,3.0929-1.7081,3.7867,1.2492,9.2946c1.7319,3.2256,0.825,7.2715,1.1527,10.9022c0.434,4.8079,0.7682,9.605,1.0004,14.3713 c-1.4409,0.0247-2.8843,0.0442-4.3275,0.0607C153.4505,192.2159,152.4272,180.7921,150.9189,169.584z M145.0834,206.6129 c2.475-0.0001,4.8368-0.0093,7.0405-0.0247c0.1349,0.0399,0.2749,0.0677,0.4221,0.0677c0.0205,0,0.042,0,0.0625-0.001 c0.1351-0.0056,0.2627-0.0345,0.3859-0.0732c4.8629-0.0383,8.8737-0.1063,11.4198-0.1719c2.4443-0.0625,4.8506-0.1201,7.21-0.1768 c3.9844-0.0958,7.7363-0.1918,11.2705-0.2986c0.0397,0.0026,0.0794,0.0046,0.1182,0.0046c0.0176,0,0.0327-0.009,0.0502-0.0096 c0.1155-0.0035,0.2354-0.0068,0.3503-0.0104c-3.3365,6.5372,4.6542,19.9982,1.449,43.1169 c-5.3809,0.4083-11.4703,1.7093-18.0283,0.6657c-6.3724-1.0141-11.7665-2.5381-19.4586-0.5813 C146.9899,235.9761,142.6023,214.7789,145.0834,206.6129z M116.6578,248.1882c14.9935,0.3106,20.0999,5.8851,27.786,3.758 c0.0166,0.9288,0.0247,1.7773,0.0231,2.53c-0.0113,5.5375-0.235,23.8174-0.5161,43.2973 c-16.1956-0.9435-23.3207-4.3385-30.7319-3.9374C115.5649,267.0284,116.5854,253.3566,116.6578,248.1882z M142.7342,358.2194 c-16.7403-2.1437-30.0059-6.2856-34.6161-7.8486c1.9938-21.7104,3.5897-39.3513,4.8364-53.5215 c17.8882,1.3599,21.9733,5.7772,30.9526,3.9293c-0.3447,23.5404-0.761,47.9615-0.9793,53.1869 C142.8841,355.0153,142.8177,356.467,142.7342,358.2194z M171.3399,409.0573c-9.1307,0-18.9412-0.9234-28.1083-2.1897 c-1.4102-14.2411,4.5898-42.0501,2.3438-45.2888c4.1815,0.4578,8.5461,0.7826,13.0233,0.9092 c1.918,0.0547,3.8633,0.0801,5.833,0.0801c7.1656,0,14.5793-0.3377,21.6372-0.8359c0.0269,18.9808,0.1862,41.0266,0.2291,46.6755 C181.3596,408.8152,176.3227,409.0573,171.3399,409.0573z M186.2276,334.7272c-0.1295,4.3959-0.1686,13.5503-0.1617,24.0014 c-8.9639,0.6373-18.5174,1.0126-27.3832,0.7613c-4.4586-0.1262-8.8032-0.4523-12.9617-0.9117 c0.0887-1.856,0.1592-3.3911,0.2049-4.4877c0.218-5.2272-0.8424-46.9959,0.979-53.1585c5.6401,1.8222,7.8138,0.2786,12.0708,0.2786 c3.0693,0,6.2598-0.0537,9.5508-0.1709c6.1711-0.2203,12.0159-0.5887,17.4624-1.0425 C186.2568,314.6715,186.4164,328.2998,186.2276,334.7272z M189.2962,408.1399c-0.0457-6.0472-0.2022-27.8903-0.2282-46.6307 c18.7343-1.4598,34.2231-3.9172,34.4584-3.9549c0.8174-0.1318,1.374-0.9014,1.2432-1.7188 c-0.1318-0.8193-0.9072-1.373-1.7188-1.2441c-0.2329,0.0377-15.4957,2.4616-33.9858,3.9124 c-0.0063-10.3263,1.5224-21.5355,1.6501-25.8774c0.1915-6.5058-1.4604-18.0959-1.7313-32.8903 c2.8376,2.6776,17.9866-4.8118,36.632-5.3196c0.5868,5.7255,1.2054,11.5933,1.8188,17.4102 c2.0928,19.8447,4.0693,38.5879,4.2637,47.1484c0.2451,10.7676,0.6299,21.8037,0.9102,29.8613 c0.167,4.7803,0.292,8.3633,0.3145,9.8457C230.2601,400.8391,211.0925,406.0294,189.2962,408.1399z M296.7061,298.6559 c-7.6582,5.8496-16.4072,10.9199-24.8672,15.8242c-16.1651,9.3682-30.126,17.459-31.626,28.1738 c-1.8799,13.4297-1.4355,18.624-1.2617,19.875c-0.0752,0.374-0.3477,1.3779-1.1729,1.9053 c-0.7985,0.5114-1.9225,0.4399-2.9387,0.1962c-0.0507-1.9046-0.0983-3.8182-0.1414-5.7236 c-0.0845-3.7043-0.4944-9.2537-1.0988-15.9402c-0.0238-13.273,24.3254-26.5928,32.3313-30.9729 c0.8271-0.4531,1.5098-0.8262,2.0127-1.1133c0.6172-0.3525,1.3866-1.2117,2.6309-1.3906c7.549-1.0855,33.877-17.46,42.2813-40.9873 c9.793-27.4238-0.699-55.7776-7.0728-61.7152c-4.6844-4.3638-4.0136-7.1945-4.5957-8.2553c-2.5-4.5561-6.5637-4.3693-10.1277-6.8936 c-7.3345-5.1949-14.6691-7.8444-25.783-5.4064c-6.7386,1.4782-12.4219,3.9664-16.8087,7.3755 c-8.4722,6.584-4.5142,8.1894-13.1569,13.9125c-4.95,3.2778-2.2229,6.8565-1.4583,7.1729c0.7627,0.3174,1.6416-0.0459,1.96-0.8105 c0.0527-0.1273,3.429-8.0403,11.0632-15.0024c4.6633-4.2527,10.9153-8.1507,18.969-9.7027c2.1624-0.4165,4.2679-0.65,6.3187-0.6995 c12.5234-0.3021,23.0001,6.2585,31.8766,19.9124c5.7061,8.7793,16.1323,32.7943,7.4448,57.1205 c-2.0012,5.6033-5.0836,10.6978-8.7216,15.26c-2.5691,3.2218-4.9357,3.5468-7.8741,6.2294s-6.4485,7.7227-9.3861,9.8495 c-6.6045,4.7816-12.7396,8.1377-16.3028,9.9742c-1.166,0.6006-2.0859,1.0752-2.7451,1.4512 c-0.4902,0.2803-1.2606,0.4926-1.9639,1.0869c-14.473,12.2294-22.7852,9.6049-30.15,22.6102 c0.1279-4.7921-3.2741-14.3054-3.9232-20.4598c-2.3193-21.9883-4.7168-44.7256-5.1426-57.4932 c-0.1316-3.9467-0.2742-7.8936-0.4207-11.7406c0.173,0.0079,0.3468,0.015,0.5252,0.015c2.6963,0,6.9183-0.9082,7.722-4.4424 c0.4336-1.9072-1.6887-3.7025-1.8723-5.8724c-0.2939-3.4658,0.3212-7.6882,2.2538-12.362c0.3174-0.7656-0.0469-1.6426-0.8125-1.959 c-0.7676-0.3184-1.4664,2.067-1.7818,2.8317c-2.2119,5.3467-2.0082,7.8295-1.7016,11.4467c0.1699,2.0156,0.3174,3.7568-0.0127,5.209 c-0.4798,2.1108-2.952,2.2394-4.4366,2.1183c-0.2956-7.5551-0.5997-14.5979-0.8571-20.303 c2.0719,1.9547,1.5404-4.0446,4.1128-8.5269c2.3618-4.1154,5.8585-9.3301,10.8265-14.8646 c4.0203-4.4788,8.4802-8.0219,13.2346-10.5867c3.6061-1.9453,7.3816-3.3278,11.263-4.1288 c6.7704-1.3973,13.863-1.0253,20.941,1.2145c18.4453,5.8418,35.052,27.2393,37.0586,53.0977 C323.4929,263.1996,315.9971,283.9196,296.7061,298.6559z M214.377,216.2789c0,5.2148-0.2871,7.748-0.5918,10.4307 c-0.3008,2.6465-0.6113,5.3838-0.6113,10.7686c0,0.8281,0.6719,1.5,1.5,1.5s1.5-0.6719,1.5-1.5 c0-5.2148,0.2871-7.748,0.5918-10.4307c0.3008-2.6465,0.6113-5.3838,0.6113-10.7686c0-0.8281-0.6719-1.5-1.5-1.5 S214.377,215.4508,214.377,216.2789z M210.3819,228.1637c-0.0381-0.8271-0.752-1.4707-1.5674-1.4287 c-0.8271,0.0381-1.4668,0.7393-1.4287,1.5674c0.1367,2.9873-0.0752,4.4531-0.2988,6.0049 c-0.2344,1.6221-0.4775,3.2988-0.3262,6.5723c0.0371,0.8037,0.7002,1.4307,1.4971,1.4307c0.0234,0,0.0469-0.001,0.0703-0.002 c0.8271-0.0381,1.4668-0.7393,1.4287-1.5674c-0.1367-2.9873,0.0752-4.4531,0.2988-6.0049 C210.2901,233.1139,210.5332,231.4371,210.3819,228.1637z"/></g></svg>