<?xml version="1.0" encoding="UTF-8" standalone="no"?><svg xmlns="http://www.w3.org/2000/svg" xmlns:xlink="http://www.w3.org/1999/xlink" fill="#642b62" height="472.2" preserveAspectRatio="xMidYMid meet" version="1" viewBox="-6.1 -0.7 174.7 472.2" width="174.7" zoomAndPan="magnify"><g id="change1_1"><path d="M160.6749,236.4812c-2.7523-12.1628-6.4099-22.5466-10.5106-31.7234c-0.0105-0.0249-0.0207-0.0496-0.0324-0.0738 c-6.0536-13.5297-13.0703-24.4327-19.5712-34.5324c-5.4308-8.4378-10.6244-16.5062-14.6028-25.1487 c-1.0637-2.3108-1.2552-4.5684-2.1265-6.9792c-0.8196-2.2676-1.6085-6.2359-2.2979-8.6808 c-3.1196-11.0626-6.9971-21.3908-8.0851-32.7234c-1.7556-18.2874-0.2564-34.0859-0.252-34.3492 c0.0137-0.8281-0.6465-1.5112-1.4746-1.5249c-0.0088-0.0005-0.0176-0.0005-0.0264-0.0005c-0.8164,0-1.5643,2.937-1.7615,3.7329 c-0.6318,2.5485-0.6687,17.2516,1.5037,34.9305c1.5706,12.7809,4.296,27.1172,8.7861,39.5406 c1.0711,2.9633,2.2919,5.8307,3.6307,8.6361c3.1714,6.6459,7.0049,12.9435,11.0788,19.3419h-9.7161 c-2.0976,0-4.0656-1.0149-5.2817-2.7239l-6.991-9.8234c-0.2832-0.4409-0.7725-0.7036-1.3018-0.6865 c-0.0869,0.0024-10.8268-0.8619-18.1783-0.8609c-3.5791-0.1284-13.2875,0.5977-15.2426,1.1563 c-1.916,0.5474-6.7188,7.1865-10.584,12.9385H40.6685c5.7936-9.0995,11.101-17.9954,14.7095-27.978 c1.7164-4.7491,3.1404-9.9367,4.3217-15.3019c1.9525-8.8686,3.2414-18.2224,4.091-26.8831 c0.5991-6.1074,0.9798-11.87,1.2206-16.8746c0.499-10.3723,1.2486-15.2303,1.2456-15.4116 c-0.0146-0.8198-1.5341-3.7329-2.3515-3.7329c-0.0078,0-0.0166,0-0.0254,0c-0.8281,0.0142-1.4883,0.6973-1.4746,1.5254 c0.0035,0.2101,0.1415,9.8386-0.6949,23.0128c-0.4998,7.8727-2.3617,16.0145-3.7941,25.1662 c-1.447,9.2454-2.4764,19.501-5.3607,27.4802c-4.1299,11.4277-10.6318,21.5283-17.5146,32.2222 c-6.71,10.4246-13.9681,21.7087-20.1509,35.85c-0.0241,0.0482-0.0462,0.0969-0.0651,0.1479 c-3.8518,8.8333-7.2839,18.7786-9.8983,30.3317C-6.083,285.1384,4.7823,451.3025,4.8926,452.9753 c0.0059,0.0889,0.0205,0.1777,0.042,0.2646c0.1865,0.7471,5.4053,18.3066,77.4707,18.3066 c54.0488,0,72.5254-12.5693,73.2852-13.1045c0.6758-0.4756,0.8379-1.4082,0.3643-2.0859c-0.4756-0.6768-2.6081,0.7693-3.2878,1.2419 c-0.1807,0.125-17.4632,10.9485-70.3616,10.9485c-26.9436,0-45.2792-2.0966-56.3226-5.0762 c-16.1288-4.3517-11.9111-11.6595-18.2087-10.8867c-0.1932-2.9645-2.4198-37.6884-3.8003-79.2092 c-0.1984-5.9662-1.3217-12.0716-1.4766-18.2444c-0.1749-6.9714,0.6257-14.0286,0.5295-21.0623 c-0.0756-5.5208-0.123-11.028-0.1367-16.4699c-0.0118-4.7419,0.0022-9.4342,0.0459-14.0429 c0.0505-5.3231,0.6251-9.6589,0.9655-17.9993c0.8604-21.0781-1.9149-13.7447,3.8511-48.4123 c1.8465-11.1021,4.3958-17.2974,8.0416-25.7817l5.8721-3.1939h22.8735h14.2509c24.7041,24.6895,26.502,24.6895,27.1816,24.6895 c0.8359,0,2.5684,0.002,22.6396-24.8438c0,0,5.8824,1.3455,7.8427,1.0741c22.1277-3.0638,29.9206,1.2766,31.2554-2.2171 c3.8759,8.8099,7.3274,18.7317,9.939,30.2729c10.9141,48.2354,0.0771,213.9648-0.0342,215.6328 c-0.0547,0.8271,0.5713,1.541,1.3975,1.5967c0.0342,0.002,0.0674,0.0029,0.1016,0.0029c0.7822,0,0.6443-4.5411,0.9152-5.2882 c0.7867-2.1694,1.3142-15.8197,2.4681-35.6596C165.5626,362.4396,168.6006,271.5096,160.6749,236.4812z M37.5635,171.7751 c0.4559-0.579,0.7906-1.232,1.1866-1.8481h19.6884c0.501,0,0.9697-0.2505,1.248-0.6675c3.6006-5.395,8.1855-11.6055,9.4307-12.4023 c3.8717-2.2978,4.8353-0.7291,10.7566,0.4857c6.0869,0,12.6808-3.234,21.0061-0.6287l7.845,10.7564 c0.2764,0.4282,0.9841,2.4565,1.4939,2.4565c0,0,9.3469-1.3591,12.4636-1.0948c1.0737,0.0911,4.1691,1.0948,4.1691,1.0948 c0.396,0.6161,0.7878,1.2285,1.1867,1.8481c0.1541,0.2394,0.3095,0.481,0.4642,0.7214l-24.3798,0.2083L96.167,160.968 c-0.2783-0.4116-0.7441-0.6582-1.2412-0.6582c0,0-5.9165-0.8732-7.9031-0.8393c-1.5038,0.0257-5.9575,0.8393-5.9575,0.8393h-8.4969 c-0.5234,0-2.7788,1.2661-3.0513,1.7128l-6.442,12.4776l-20.9035,0.9802c-0.8281,0-2.9402-0.3088-2.9402,0.5198s0.6719,1.5,1.5,1.5 H62.418v7.4171c0,0-0.7087,5.9933-0.6719,8c0.0256,1.3975,0.6719,5.5502,0.6719,5.5502l-15.3953-0.6719l-25.2565,0.6719 C26.2568,195.896,25.4057,187.2152,37.5635,171.7751z M79.7588,182.1657c0.0732-4.6162,1.3447-7.8984,3.4873-9.0059 c1.0742-0.5542,2.2637-0.4805,3.2646,0.2061c2.0586,1.4131,3.3044,5.0227,2.7673,9.9343c-0.334,3.0488-1.8307,5.4827-3.3434,7.3938 c1.4286,0.7764,1.1898,2.0458,1.6839,2.436c2.9141,2.3018,5.8165,2.5028,6.3829,2.3617c0.7881-0.2007,1.5797-0.4617,1.7994,0.3234 c0.2207,0.7832-0.1924,1.5908-0.9707,1.8301c-0.3301,0.1016-0.7148,0.1504-1.1396,0.1504c-2.125,0-5.2646-1.2158-7.7803-3.105 c-0.7529-0.5659-1.4424-1.1807-2.0645-1.8394c-4.7256,4.0332-11.0039,4.8389-11.1006,4.8496 c-0.834,0.1055-1.5693-0.4902-1.666-1.3125c-0.0977-0.8223,1.8022-0.9261,2.6245-1.0243c0.3457-0.0425,6.383-1.1489,8.3287-4.8512 C80.4981,188.071,79.71,185.2273,79.7588,182.1657z M131.4483,205.4279c-3.3525,0.3719-10.0756,1.2173-13.4468,1.1064 c-2.5431-0.0836-10.0668-1.4994-10.0668-1.4994c-0.4375,0.0127-0.886,0.1888-1.123,0.5566 c-6.5265,10.1246-17.2614,21.7548-20.79,24.0713c-7.169-1.6817-14.9385-13.543-25.4492-24.0557 c-0.2813-0.2813-0.6631-0.4395-1.0605-0.4395c0,0-8.4601-1.0571-11.2975-1.1015c-4.1788-0.0653-16.6808,1.1015-16.6808,1.1015 H18.551c0.5799-1.279,1.1676-2.5366,1.7636-3.77c0.1367,0.041,0.2786,0.0698,0.4286,0.0698c0,0,16.6436-0.6425,22.1945-0.6353 c5.0947,0.0065,20.3689,0.6353,20.3689,0.6353l8.2257,8.0447l7.5756,8.171l4.9762,4.1046c0.2813,0.2744,0.6572,0.4277,1.0488,0.4277 c0.0186,0,0.0381,0,0.0576-0.001c0.4111-0.0156,0.7988-0.2002,1.0703-0.5098l17.7512-20.2373l29.3937-0.9758 c0.8281,0,7.3775,0.3039,7.3775-0.5242s-0.6719-1.5-1.5-1.5h-34.4512l-0.0905-3.8505c0,0,0.5666-3.628,0.579-4.8487 c0.0234-2.3091-0.9089-9.1921-0.9089-9.1921l-0.1124-4.784l26.1183-0.3118c0.7972,6.0588,11.2434,10.8837,16.0576,28.4283 C146.4753,203.9087,135.2012,205.0116,131.4483,205.4279z M24.4629,432.906c-0.6104,1.8291-0.1641,6.2178-0.0684,7.0791 c0.0811,0.7217,0.667,1.2822,1.3916,1.3311c0.25,0.0166,19.2791,1.6437,37.4919,0.5373c2.9116-0.1769,5.512,0.826,7.928,0.7156 c0.7686-0.0342,1.3867-0.6465,1.4297-1.415c0.1797-3.2461,0.085-6.4336,0.0801-6.5674c-0.0244-0.7881-0.6533-1.4229-1.4414-1.4531 c-1.5176-0.0586-37.252-1.4307-45.4209-1.2529C25.2198,431.8943,24.6631,432.3044,24.4629,432.906z M27.169,434.8659 c4.2054-0.0237,12.9648-0.6778,21.2773-0.4167c9.1645,0.2878,10.6615,2.6076,21.2949,1.6287 c0.0068,0.916,0.0039,2.1914-0.041,3.5488c-13.8369,0.4717-37.6562,1.0353-42.4404-1.2227 C27.1612,437.1247,27.1192,435.7946,27.169,434.8659z M76.6807,30.0046c0.0117,0,0.0234,0,0.0342-0.0005 c0.8281-0.0186,2.2417-2.3052,1.9675-3.0869c-1.2766-3.6383-1.5681-11.961-5.2194-11.961c-0.4756,0-1.1787,0.1416-1.8242,0.8159 c-2.3584,2.4644-2.127,12.0811-2,14.9697c0.0361,0.8052,0.7002,1.4341,1.498,1.4341c0.0225,0,0.0439-0.0005,0.0664-0.0015 c0.8281-0.0366,0.8132-0.6636,0.777-1.4913c-0.2344-5.3452-2.4144-11.1702,1.5687-12.4262 c0.7939,1.3706,2.4816,3.1757,2.5803,7.5751C76.1477,26.6486,75.8682,30.0046,76.6807,30.0046z M87.2355,182.279 c-0.0739-4.3868-0.9485-7.5328-2.5527-7.0851c-1.3458,0.3755-2.4902,1.6038-2.5537,5.617 c-0.0381,2.3848,1.1512,5.7411,1.9813,7.3192C84.427,185.8534,87.3222,187.4279,87.2355,182.279z M71.2781,65.4705 c-0.8221-0.1365-2.3337-0.6094-2.5026,0.2016c-0.1699,0.8105,0.3496,1.6055,1.1602,1.7749 c0.3008,0.063,3.5331,0.6405,10.9169,0.6405c1.501,0,4.7381,0.1221,6.3192,0c0.8252-0.064,2.5295-0.3031,2.4651-1.1293 c-0.0635-0.8262-0.7734-1.4351-1.6113-1.3799C79.1221,66.2707,74.2433,65.9627,71.2781,65.4705z M62.9408,58.7726 c0.0173,0.015,0.0346,0.0292,0.0525,0.0433c0.0196,0.0143,0.0357,0.0316,0.0555,0.0457c0.0212,0.015,0.0457,0.0197,0.0674,0.0335 c0.091,0.0579,0.1857,0.1052,0.2855,0.142c0.0386,0.0142,0.0756,0.0298,0.1148,0.0408c0.129,0.0359,0.2607,0.0595,0.3947,0.0602 c0.002,0,0.0038,0.0009,0.0058,0.0009c0.0003,0,0.0007-0.0001,0.001-0.0001s0.0007,0.0001,0.001,0.0001 c0.0018,0,0.0037-0.0009,0.0055-0.0009c0.139-0.0007,0.2755-0.0263,0.409-0.0649c0.0399-0.0115,0.0774-0.0276,0.1166-0.0425 c0.1043-0.0397,0.2028-0.0911,0.297-0.1541c0.0219-0.0146,0.0471-0.0196,0.0684-0.0355c0.0148-0.011,0.0256-0.025,0.0399-0.0365 c0.0309-0.0248,0.0589-0.0531,0.088-0.0806c0.0573-0.0541,0.1098-0.1107,0.1569-0.1716c0.0125-0.0161,0.0286-0.0276,0.0405-0.0443 c0.0119-0.0168,0.0187-0.0354,0.0298-0.0525c0.0305-0.0468,0.0571-0.0948,0.082-0.1442c0.0203-0.0402,0.0397-0.0803,0.0561-0.1216 c0.0187-0.0475,0.0337-0.0956,0.0474-0.1447c0.0128-0.0455,0.025-0.0905,0.0333-0.1366c0.0089-0.0483,0.0135-0.0966,0.0176-0.1456 c0.0038-0.0466,0.0073-0.0927,0.0067-0.1393c-0.0005-0.0502-0.0052-0.1-0.0108-0.1501c-0.0051-0.0452-0.0104-0.0898-0.0195-0.1343 c-0.01-0.0493-0.024-0.0973-0.0392-0.1457c-0.0141-0.0453-0.029-0.0899-0.0474-0.1339c-0.0184-0.0439-0.0402-0.0862-0.063-0.1287 c-0.0247-0.0461-0.051-0.0909-0.0807-0.1345c-0.0121-0.0179-0.0332-0.0331-0.033-0.0549c0.0196-1.9518-2.0655-1.0369-1.6073-3.6352 c0.3121-1.4662,1.5132-2.5849,3.2323-2.9957c0.1076-0.0257,0.2086-0.0639,0.3043-0.1101c0.0251-0.0121,0.0471-0.0289,0.0714-0.0424 c0.0686-0.038,0.1351-0.0782,0.196-0.1259c0.0281-0.0219,0.0526-0.0471,0.079-0.0709c0.0516-0.0466,0.1007-0.0944,0.145-0.1473 c0.0251-0.0299,0.0475-0.0613,0.0704-0.0933c0.0395-0.0553,0.075-0.1124,0.1066-0.1724c0.0101-0.0193,0.0248-0.0353,0.0341-0.0551 c0.0074-0.0157,0.0098-0.0327,0.0167-0.0486c0.0277-0.0639,0.0491-0.1298,0.0677-0.1973c0.0098-0.0355,0.0214-0.07,0.0285-0.106 c0.0141-0.0713,0.0196-0.1441,0.0232-0.2177c0.0016-0.0326,0.0071-0.0646,0.0065-0.0973c-0.0014-0.0818-0.0135-0.1644-0.0289-0.2473 c-0.0043-0.0236-0.0041-0.0477-0.0096-0.071c-0.0004-0.0017-0.0002-0.0034-0.0007-0.0051c-0.0251-0.105-0.0616-0.204-0.1062-0.2976 c-0.0014-0.0029-0.0012-0.0065-0.0032-0.009c-8.0212-9.9088-1.6843-33.9509-0.2965-40.1403 c3.192,2.0292,9.1431,3.418,16.5172,3.6603c0.9316,0.0308,1.8926,0.0488,2.8652,0.0488c5.2876,0,11.6147-1.0731,14.7013-2.9883 c-1.617,2.5957,1.3192,3.7447,2.0887,20.4624c0.7128,15.4846-3.6207,16.1333-3.1221,18.3989 c-0.6334,0.1776-1.6932,0.4502-3.085,0.7444c0.3701-4.0926,0.9031-12.7075-0.7213-16.3206 c0.0765-0.5351,0.3435-1.0898,0.1861-1.5947c-2.0892-6.7012,0.0146-13.9038-0.0195-14.0874 c-0.1533-0.813-0.9287-1.3442-1.7471-1.1968c-0.8135,0.1504-1.3506,0.9326-1.2021,1.7461c0.0068,0.0415-0.3522,4.248-0.0195,13.2822 c0.429,11.6505-8.3157,19.2373-6.7253,19.5479c-2.8669,1.0388-4.4832,0.1957-6.9772,0.1318 c1.8795-3.2085,4.4932-9.8271,6.2045-18.8267c2.4377-12.8195-0.5145-14.3763-0.5623-14.6068 c-0.168-0.8101-0.4084-1.4406-1.2277-1.2697c-0.8105,0.1665-1.333,0.959-1.168,1.77c0.0107,0.0518,1.7396,6.9941,0.6722,15.418 c-1.2897,10.1871-6.0468,15.3644-7.3465,17.3442c-1.7811,0.8865-3.2492,0.8865-3.8004-0.3525 c0.6826-3.4741,1.5879-11.0376-2.8838-13.1421c-0.748-0.3521-1.6436-0.0303-1.9961,0.7188 c-0.3525,0.7495-0.0313,1.6431,0.7188,1.9961c2.585,1.2168,1.7139,8.1519,0.8867,11.3198c-0.1084,0.4136-0.0342,0.854,0.2021,1.21 s0.6143,0.5942,1.0371,0.6548c4.0684,0.5811,7.8896,0.8066,11.3691,0.8066c10.5192-0.0004,17.9286-2.9864,19.5576-3.4829 c0.7122,0.1354,2.3266,1.6613,2.3292,4.2329c0.001,1.7896-2.541,3.0605-3.001,3.2754c-1.4434,0.3804-16.7062,5.4035-29.7111,1.9474 c-0.8027-0.2119-2.4637-0.6867-2.6756,0.1146c-0.2129,0.8008,0.2637,1.6221,1.0635,1.835c4.1533,1.104,8.5381,1.4995,12.6924,1.4995 c10.208-0.0005,19.0195-2.3901,19.5332-2.5322c0.0596-0.0161,0.1172-0.0361,0.1738-0.0596 c0.2012-0.0835,4.9248,0.2917,4.9248-6.0825c0-3.4211-1.8589-5.1354-3.5905-5.8697c1.0352-3.3872,3.318-11.7396,3.029-18.6953 c-0.3469-8.3135-3.1379-21.8564-3.4448-23.3249c0.0263-0.928-0.3045-1.8804-0.9858-2.7542c-0.5078-0.6533-1.4531-0.77-2.1045-0.2607 c-0.6533,0.5093-0.7705,1.4521-0.2607,2.1055c0.5068,0.6504,0.3447,0.9683,0.2842,1.0874 c-0.168,0.3296-2.2871,4.2399-16.2939,3.7883C72.6192,9.1874,69.5658,4.4492,67.9287,4.3655 c0.1582-0.1421,0.6689-0.4922,2.0449-0.7417c7.1201-1.2915,26.0137-0.1689,26.2031-0.1577 c0.8496,0.0557,1.5381-0.5796,1.5879-1.4067c0.0498-0.8267-0.5801-1.5376-1.4063-1.5874 c-0.791-0.0483-19.4463-1.1558-26.9199,0.1997c-4.29,0.7778-4.6006,2.9448-4.5342,3.8403c0.0161,0.2206-0.4976,1.3191-0.5199,1.4053 c-0.291,1.124-6.276,26.3471-0.0319,41.8212c-4.1809,0.6256-3.83,4.4824-3.8394,5.1719 C60.1858,55.1882,61.0921,57.3964,62.9408,58.7726z M94.3461,48.7546c-1.1006,0.1785-2.3171,0.3476-3.6366,0.4941 c1.1136-2.2185,3.0532-7.2202,4.3771-11.1613C97.3844,43.0662,94.6128,46.0525,94.3461,48.7546z M152.7657,317.364 c-0.178-0.4097-0.1611-0.877-0.4922-1.1768c-0.3291-0.2979-0.7773-0.4316-1.2188-0.373c-0.1072,0.0159-4.6684-0.8283-39.6915-0.0135 c-5.7974,0.1349-17.2379,2.4026-24.5067,2.5027c-51.1025,0.708-72.876-2.4561-73.0898-2.4873 c-0.4307-0.0615-0.875,0.0645-1.208,0.3525c-0.3311,0.2881-0.5195,0.707-0.5146,1.1465c0.0043,0.4069,1.6339,18.4557,2.0426,41.517 c0.5261,29.6828-0.0271,67.7517,1.2699,88.0582c0.0527,0.8252,0.752,1.4512,1.5928,1.4014 c0.8271-0.0527,1.5175-0.7722,1.4014-1.5928c-4.7747-33.7391,0.3317-103.4412-3.192-119.9971 c6.6201,0.7999,31.9858,3.545,68.3834,3.545c42.3574,0,61.7783-1.8633,61.9688-1.8818c0.8252-0.0811,1.4277-0.8154,1.3467-1.6396 c-0.0811-0.8252-0.8213-1.4229-1.6396-1.3467c-0.1904,0.0186-19.4941,1.8682-61.6758,1.8682 c-37.0426,0-62.5804-2.8529-68.4222-3.5719c-0.025-1.9951-0.0438-3.5818-0.0563-4.6693c6.1016,0.7178,28.5088,2.8916,71.834,2.2979 c18.6929-0.2578,32.2643-1.9431,41.9915-2.3436c11.9392-0.4915,18.0869,0.2985,20.8044,0.0272 c1.4996,16.9941-5.0791,118.5371-5.6152,131.2246c-2.951-0.7545-15.261,3.4426-33.3958,5.5142 c-15.0236,1.7162-34.4207,1.5015-52.423,0.054c-10.593-0.8518-16.8903-3.7986-31.1114-4.7036 c-1.4749-0.0939-5.894-0.8196-6.1088-0.0208c-0.2158,0.8008,0.2588,1.623,1.0586,1.8379 c6.6772,1.7941,13.7919,3.1655,21.1085,4.1846c12.8467,1.7894,24.157,1.6304,39.1993,1.6266 c32.2139-0.0083,60.2538-3.5788,64.038-6.4167c0.3594-0.2705,0.5791-0.6875,0.5986-1.1377 c0.1742-4.1816-0.7613-36.5984,2.9137-68.1923c2.8112-24.1682,1.33-31.0553,1.8442-43.0577 C152.3655,326.6993,154.9377,322.3641,152.7657,317.364z M96.6602,362.8122c-1.2256-1.7178-2.9033-2.7549-4.9883-3.084 c-6.1396-0.9736-10.4727,2.7959-13.1777,6.5322c-0.1641-2.2676-0.7402-4.6396-2.1563-6.4521 c-1.5801-2.0234-3.9014-3.0498-6.8994-3.0498c-1.0957,0-2.1611,0.1475-3.1855,0.417c-0.5225-1.2061-1.1787-2.2275-1.957-2.9609 c-5.8301-5.4854-13.6836-4.4736-21.0146,2.7041c-9.835,9.6299-2.3076,22.6338-2.2305,22.7637 c0.2793,0.4727,0.7783,0.7344,1.29,0.7344c0.2588,0,0.5225-0.0674,0.7617-0.208c0.7129-0.4209-0.6396-2.2797-1.0585-2.9935 c-0.2646-0.4502-4.8195-11.5632,3.3192-19.5319c6.1318-6.0059,12.296-5.5937,16.8761-1.2841 c0.459,0.4316,0.8691,1.0684,1.2188,1.8486c-5.2559,2.6729-8.9229,8.3975-9.1934,12.6113 c-0.2139,3.3281,1.6201,5.6494,4.7861,6.0576c3.1104,0.4092,5.6611-1.1543,7.1865-4.3799 c1.6387-3.4648,1.8643-8.4395,0.9336-12.5049c0.7344-0.1768,2.6519-1.1572,3.4263-1.1572c2.0537,0,3.3444,0.999,4.3405,2.2715 c2.3564,3.0127,0.5448,9.6611,0.0214,11.7744c-0.1934,0.7764,0.2578,1.5664,1.0234,1.7969 c0.7656,0.2354,1.5781-0.1797,1.8457-0.9336c0.0439-0.125,3.173-13.3289,12.0031-11.9305c1.2764,0.2012,3.6336,1.6473,4.3846,2.6981 c2.2568,3.1582,1.7607,9.5107,1.3789,11.6914c-0.0771,0.4414,0.0469,0.8945,0.3379,1.2344s0.7236,0.5576,1.166,0.5254 l30.3164-0.5361c0.8281-0.0146,1.4883-0.6982,1.4736-1.5264c-0.0146-0.8193-0.7101-0.4697-1.5255-0.4697 c-0.0098,0-2.3742-0.1702-2.383-0.1702l-25.1916-0.3457C100.0669,372.0659,99.2061,366.3816,96.6602,362.8122z M63.5254,371.2546 c-1.4346,3.0322-3.4355,2.7686-4.0898,2.6875c-1.0059-0.1299-3.4984-1.5566-3.349-3.8759c0.2061-3.208,4.2299-6.6866,8.2601-8.92 C64.9942,364.3816,64.8702,368.4118,63.5254,371.2546z M26.4512,423.6316c0.2646,0.3057,0.6426,0.4912,1.0459,0.5137 c0.4961,0.0293,8.8789,0.502,17.3525,0.502c3.5869,0,7.1904-0.085,10.2178-0.3242c0.2559-0.0195,0.502-0.1055,0.7148-0.248 c0.4756-0.3174,1.9229-1.2832,0.6328-7.2012c-0.1494-0.6855-0.7539-1.1758-1.4561-1.1807 c-1.0732-0.0068-26.3096-0.1787-27.376-0.1787c-0.4268,0-0.833,0.1816-1.1182,0.5c-0.2842,0.3174-0.4199,0.7422-0.373,1.166 c0.249,2.2373-0.001,5.3125-0.0039,5.3438C26.0547,422.9265,26.1856,423.3269,26.4512,423.6316z M53.7022,418.6843 c0.168,1.0674,0.252,2.0967,0.2188,2.7139c-8.2529,0.5449-21.7067,2.1574-24.7529-0.1699c0.0303-0.7637-0.3268-2.4064-0.358-3.383 C33.7951,419.4029,48.446,416.2364,53.7022,418.6843z M92.2142,389.8534c13.149,1.2766,17.9815,0.7626,18.8835,0.7586 c0.8281-0.0039,1.4971-0.6787,1.4932-1.5068c-0.0039-0.8262-0.6748-1.4932-1.5-1.4932c-0.002,0-0.0049,0-0.0068,0 c-0.3464,0.0018-20.9663,0.0962-38.3387,0.1165c-11.7679,0.0138-22.0457-0.0065-23.5226-0.1125 c-0.6826-0.0586-1.3135,0.3711-1.5303,1.0225c-0.5977,1.793-0.3652,6.3701-0.3125,7.2695c0.0459,0.793,0.7021,1.4121,1.4971,1.4121 c0,0,55.2096,1.3419,66.5062,0c0.7764-0.0922,1.4324-0.6006,1.4948-1.3799l-0.5361-5.3207 c0.0664-0.8262,0.5234-2.9361-0.3018-3.0025c-0.8262-0.0527-1.5488,0.5508-1.6152,1.375l-0.3015,3.7643 c-0.0707,0.8831-0.808,1.5638-1.694,1.5638l-19.8321,1.0228L61.8313,394.32H50.3145c-1.5684-0.9559,0.7296-2.2964,0.0527-3.666 C55.9759,390.769,76.8281,388.3596,92.2142,389.8534z"/></g></svg>